<svg width="222" height="227" viewBox="0 0 222 227" fill="none" xmlns="http://www.w3.org/2000/svg">
<g clip-path="url(#clip0_1_2191)">
<path d="M103.932 227L18.5203 226.645C8.24442 226.602 -0.0417865 219.06 -8.74457e-05 209.794L0.905379 16.706C0.947078 7.43974 9.31668 -0.0431256 19.5985 -0.000151516L105.01 0.354385C115.28 0.397359 123.572 7.93932 123.53 17.2002L122.625 210.288C122.577 219.565 114.208 227.043 103.932 227Z" fill="#455A64"/>
<path d="M104.885 7.0209L88.3246 6.95107C86.1027 6.94032 84.2977 8.63243 84.2858 10.7274L84.2739 13.4348C84.2619 15.5298 82.457 17.2165 80.235 17.2111L47.954 17.0715C45.732 17.0607 43.9389 15.3579 43.9508 13.2629L43.9628 10.5555C43.9747 8.46053 42.1816 6.75768 39.9596 6.74694L34.1337 6.72008L19.6403 6.66099C12.4442 6.63413 6.5825 11.8716 6.55271 18.3661L5.67107 206.834C5.64129 213.324 11.4494 218.604 18.6395 218.636L103.878 218.991C111.074 219.023 116.936 213.78 116.966 207.291L117.848 18.8227C117.883 12.3336 112.081 7.04776 104.885 7.0209Z" fill="#FAFAFA"/>
<path d="M62.5367 150.092C62.6201 150.092 62.6916 154.83 62.6916 160.669C62.6916 166.514 62.6201 171.246 62.5367 171.246C62.4533 171.246 62.3818 166.509 62.3818 160.669C62.3818 154.83 62.4474 150.092 62.5367 150.092Z" fill="#E8505B"/>
<path d="M59.4808 152.418C59.5641 152.418 59.6356 156.034 59.6356 160.492C59.6356 164.951 59.5641 168.571 59.4808 168.571C59.3974 168.571 59.3259 164.956 59.3259 160.492C59.3259 156.034 59.3914 152.418 59.4808 152.418Z" fill="#E8505B"/>
<path d="M56.0376 154.728C56.121 154.728 56.1925 157.344 56.1925 160.578C56.1925 163.807 56.121 166.428 56.0376 166.428C55.9542 166.428 55.8828 163.812 55.8828 160.578C55.8828 157.344 55.9542 154.728 56.0376 154.728Z" fill="#E8505B"/>
<path d="M53.0353 156.716C53.1187 156.716 53.1901 158.177 53.1901 159.977C53.1901 161.776 53.1187 163.237 53.0353 163.237C52.9519 163.237 52.8804 161.776 52.8804 159.977C52.8804 158.177 52.9519 156.716 53.0353 156.716Z" fill="#E8505B"/>
<path d="M50.3904 158.306C50.4738 158.306 50.5452 159.106 50.5452 160.095C50.5452 161.083 50.4738 161.883 50.3904 161.883C50.307 161.883 50.2355 161.083 50.2355 160.095C50.2355 159.106 50.307 158.306 50.3904 158.306Z" fill="#E8505B"/>
<path d="M47.388 156.399C47.4714 156.399 47.5429 157.86 47.5429 159.66C47.5429 161.459 47.4714 162.92 47.388 162.92C47.3046 162.92 47.2332 161.459 47.2332 159.66C47.2332 157.86 47.3046 156.399 47.388 156.399Z" fill="#E8505B"/>
<path d="M44.5644 153.772C44.6478 153.772 44.7193 156.517 44.7193 159.896C44.7193 163.28 44.6478 166.025 44.5644 166.025C44.481 166.025 44.4095 163.28 44.4095 159.896C44.4095 156.517 44.481 153.772 44.5644 153.772Z" fill="#E8505B"/>
<path d="M80.372 154.728C80.4554 154.728 80.5269 157.344 80.5269 160.578C80.5269 163.807 80.4554 166.428 80.372 166.428C80.2886 166.428 80.2171 163.812 80.2171 160.578C80.2171 157.344 80.2886 154.728 80.372 154.728Z" fill="#E8505B"/>
<path d="M77.3697 156.716C77.4531 156.716 77.5245 158.177 77.5245 159.977C77.5245 161.776 77.4531 163.237 77.3697 163.237C77.2863 163.237 77.2148 161.776 77.2148 159.977C77.2148 158.177 77.2863 156.716 77.3697 156.716Z" fill="#E8505B"/>
<path d="M74.7248 158.306C74.8082 158.306 74.8796 159.106 74.8796 160.095C74.8796 161.083 74.8082 161.883 74.7248 161.883C74.6414 161.883 74.5699 161.083 74.5699 160.095C74.5699 159.106 74.6414 158.306 74.7248 158.306Z" fill="#E8505B"/>
<path d="M71.7224 155.443C71.8058 155.443 71.8773 157.328 71.8773 159.66C71.8773 161.991 71.8058 163.876 71.7224 163.876C71.6391 163.876 71.5676 161.991 71.5676 159.66C71.5676 157.328 71.6391 155.443 71.7224 155.443Z" fill="#E8505B"/>
<path d="M68.8988 153.772C68.9822 153.772 69.0537 156.517 69.0537 159.896C69.0537 163.28 68.9822 166.025 68.8988 166.025C68.8154 166.025 68.7439 163.28 68.7439 159.896C68.7439 156.517 68.8154 153.772 68.8988 153.772Z" fill="#E8505B"/>
<path d="M65.4616 152.499C65.545 152.499 65.6165 155.991 65.6165 160.299C65.6165 164.607 65.545 168.099 65.4616 168.099C65.3782 168.099 65.3067 164.607 65.3067 160.299C65.3067 155.991 65.3722 152.499 65.4616 152.499Z" fill="#E8505B"/>
<path d="M83.5769 162.92C83.4935 162.92 83.422 161.459 83.422 159.66C83.422 157.86 83.4935 156.399 83.5769 156.399C83.6603 156.399 83.7318 157.86 83.7318 159.66C83.7318 161.459 83.6662 162.92 83.5769 162.92Z" fill="#E8505B"/>
<path d="M86.2278 161.33C86.1444 161.33 86.0729 160.53 86.0729 159.541C86.0729 158.553 86.1444 157.753 86.2278 157.753C86.3112 157.753 86.3826 158.553 86.3826 159.541C86.3826 160.53 86.3112 161.33 86.2278 161.33Z" fill="#E8505B"/>
<path d="M41.8003 156.399C41.8837 156.399 41.9552 157.86 41.9552 159.66C41.9552 161.459 41.8837 162.92 41.8003 162.92C41.7169 162.92 41.6454 161.459 41.6454 159.66C41.6454 157.86 41.7169 156.399 41.8003 156.399Z" fill="#E8505B"/>
<path d="M39.1554 157.989C39.2388 157.989 39.3103 158.789 39.3103 159.778C39.3103 160.766 39.2388 161.567 39.1554 161.567C39.072 161.567 39.0005 160.766 39.0005 159.778C39.0005 158.789 39.072 157.989 39.1554 157.989Z" fill="#E8505B"/>
<path d="M36.5165 156.399C36.5999 156.399 36.6713 157.86 36.6713 159.66C36.6713 161.459 36.5999 162.92 36.5165 162.92C36.4331 162.92 36.3616 161.459 36.3616 159.66C36.3616 157.86 36.4271 156.399 36.5165 156.399Z" fill="#E8505B"/>
<path d="M33.6928 153.772C33.7762 153.772 33.8477 156.517 33.8477 159.896C33.8477 163.28 33.7762 166.025 33.6928 166.025C33.6094 166.025 33.538 163.28 33.538 159.896C33.538 156.517 33.6035 153.772 33.6928 153.772Z" fill="#E8505B"/>
<path d="M30.9288 156.399C31.0122 156.399 31.0837 157.86 31.0837 159.66C31.0837 161.459 31.0122 162.92 30.9288 162.92C30.8454 162.92 30.7739 161.459 30.7739 159.66C30.7739 157.86 30.8395 156.399 30.9288 156.399Z" fill="#E8505B"/>
<path d="M28.2779 157.989C28.3613 157.989 28.4328 158.789 28.4328 159.778C28.4328 160.766 28.3613 161.567 28.2779 161.567C28.1945 161.567 28.123 160.766 28.123 159.778C28.123 158.789 28.1945 157.989 28.2779 157.989Z" fill="#E8505B"/>
<path d="M94.6152 156.399C94.6986 156.399 94.7701 157.86 94.7701 159.66C94.7701 161.459 94.6986 162.92 94.6152 162.92C94.5318 162.92 94.4603 161.459 94.4603 159.66C94.4603 157.86 94.5318 156.399 94.6152 156.399Z" fill="#E8505B"/>
<path d="M91.7916 153.772C91.875 153.772 91.9465 156.517 91.9465 159.896C91.9465 163.28 91.875 166.025 91.7916 166.025C91.7082 166.025 91.6367 163.28 91.6367 159.896C91.6367 156.517 91.7082 153.772 91.7916 153.772Z" fill="#E8505B"/>
<path d="M89.0276 156.399C89.111 156.399 89.1824 157.86 89.1824 159.66C89.1824 161.459 89.111 162.92 89.0276 162.92C88.9442 162.92 88.8727 161.459 88.8727 159.66C88.8727 157.86 88.9442 156.399 89.0276 156.399Z" fill="#E8505B"/>
<path d="M86.3826 157.989C86.466 157.989 86.5375 158.789 86.5375 159.778C86.5375 160.766 86.466 161.567 86.3826 161.567C86.2992 161.567 86.2277 160.766 86.2277 159.778C86.2277 158.789 86.2992 157.989 86.3826 157.989Z" fill="#E8505B"/>
<path d="M98.0643 157.989C98.1477 157.989 98.2192 158.789 98.2192 159.778C98.2192 160.766 98.1477 161.567 98.0643 161.567C97.9809 161.567 97.9094 160.766 97.9094 159.778C97.9094 158.789 97.9809 157.989 98.0643 157.989Z" fill="#E8505B"/>
<g opacity="0.3">
<path d="M108.543 83.0152C108.543 83.0152 108.525 82.7896 108.507 82.3491C108.477 81.9087 108.495 81.2533 108.406 80.3992C108.293 78.691 107.971 76.1662 107.107 73.0077C106.642 71.4391 106.077 69.6986 105.243 67.8669C104.42 66.0351 103.408 64.0798 102.079 62.103C99.4523 58.1494 95.6815 54.0077 90.5466 50.4785C87.991 48.7112 85.084 47.1211 81.8791 45.8104C78.6802 44.4997 75.1835 43.4468 71.4484 42.8452C67.7253 42.2274 63.7817 41.9803 59.7608 42.265C57.7473 42.3725 55.7219 42.6679 53.6846 43.0332C51.6533 43.4253 49.6338 43.9518 47.6263 44.591C39.632 47.2017 32.0309 52.0793 26.5564 58.8423C25.1684 60.5183 23.9591 62.3286 22.863 64.2033C22.3031 65.138 21.8265 66.1157 21.344 67.0933C20.9091 68.0871 20.4564 69.0809 20.093 70.1123C18.5621 74.2002 17.7996 78.5782 17.7757 83.0099C17.7936 85.2284 17.9902 87.4255 18.3655 89.5849C18.7348 91.7497 19.3484 93.8608 20.093 95.9075C20.4564 96.9389 20.9032 97.9326 21.344 98.9264C21.8325 99.9041 22.309 100.882 22.863 101.816C23.9591 103.697 25.1684 105.507 26.5564 107.183C32.0309 113.946 39.632 118.823 47.6263 121.439C49.6338 122.084 51.6592 122.605 53.6846 122.997C55.7159 123.363 57.7473 123.658 59.7608 123.765C63.7877 124.05 67.7253 123.803 71.4484 123.185C75.1775 122.578 78.6743 121.525 81.8791 120.22C85.084 118.909 87.991 117.319 90.5466 115.552C95.6815 112.023 99.4523 107.887 102.079 103.928C103.408 101.951 104.42 99.9954 105.243 98.1636C106.082 96.3319 106.642 94.5914 107.107 93.0228C107.971 89.8642 108.293 87.3395 108.406 85.6313C108.489 84.7772 108.471 84.1218 108.507 83.6813C108.525 83.2355 108.543 83.0152 108.543 83.0152C108.543 83.0152 108.549 83.2409 108.543 83.6813C108.525 84.1218 108.549 84.7772 108.477 85.6313C108.382 87.3449 108.084 89.875 107.232 93.0497C106.773 94.629 106.219 96.3748 105.386 98.212C104.569 100.054 103.563 102.021 102.234 104.008C99.6132 107.983 95.8364 112.152 90.6836 115.708C88.1161 117.491 85.2032 119.092 81.9864 120.413C78.7696 121.735 75.2549 122.799 71.508 123.411C67.767 124.039 63.7996 124.287 59.7488 124.007C57.7235 123.9 55.6802 123.604 53.6369 123.244C51.5937 122.852 49.5564 122.326 47.537 121.681C39.489 119.06 31.8343 114.155 26.3181 107.349C24.9241 105.663 23.697 103.842 22.595 101.951C22.035 101.011 21.5525 100.022 21.064 99.0392C20.6232 98.0347 20.1705 97.0356 19.8071 95.9988C19.0565 93.936 18.4429 91.8088 18.0676 89.6333C17.6864 87.4577 17.4898 85.2445 17.4719 83.0099C17.5017 78.5513 18.2642 74.1411 19.8071 70.0263C20.1705 68.9896 20.6232 67.9904 21.064 66.9859C21.5525 66.0029 22.035 65.0198 22.595 64.0798C23.697 62.1889 24.9182 60.3679 26.3181 58.6812C31.8343 51.8751 39.4831 46.9707 47.531 44.3493C49.5504 43.7047 51.5877 43.1782 53.631 42.7861C55.6802 42.4208 57.7175 42.1254 59.7429 42.0233C63.7937 41.744 67.7551 41.9911 71.4961 42.6196C75.249 43.232 78.7636 44.2956 81.9745 45.617C85.1912 46.9385 88.1102 48.5393 90.6717 50.3227C95.8245 53.8788 99.5953 58.0419 102.222 62.0224C103.551 64.0099 104.557 65.976 105.374 67.8185C106.208 69.6557 106.762 71.4069 107.22 72.9862C108.072 76.1609 108.37 78.691 108.465 80.4046C108.543 81.2587 108.513 81.9194 108.531 82.3545C108.543 82.7896 108.543 83.0152 108.543 83.0152Z" fill="#4666E8"/>
</g>
<path d="M102.782 82.1289C102.782 82.1289 102.764 81.9355 102.753 81.5541C102.729 81.1781 102.741 80.6087 102.663 79.8728C102.562 78.3955 102.288 76.22 101.537 73.4965C100.763 70.7837 99.4642 67.5123 97.1946 64.0905C94.925 60.6794 91.6725 57.1126 87.2464 54.0668C85.0423 52.5412 82.5344 51.1714 79.7704 50.0434C77.0123 48.9153 73.9921 48.0075 70.7753 47.4864C67.5644 46.9546 64.163 46.7451 60.696 46.9868C58.9566 47.0781 57.2112 47.336 55.4598 47.6475C53.7084 47.986 51.963 48.4372 50.2355 48.9905C43.3373 51.2413 36.7905 55.4474 32.0666 61.2811C30.8692 62.7261 29.8268 64.2839 28.8796 65.9062C27.9324 67.5284 27.1342 69.2313 26.4908 71.004C25.1684 74.5332 24.5131 78.3042 24.4893 82.1235C24.5131 85.9429 25.1684 89.7192 26.4849 93.2484C27.1282 95.0158 27.9265 96.724 28.8736 98.3463C29.8208 99.9685 30.8633 101.526 32.0606 102.971C36.7786 108.805 43.3373 113.011 50.2295 115.267C51.963 115.821 53.7084 116.272 55.4538 116.61C57.2052 116.922 58.9566 117.18 60.696 117.271C64.1689 117.518 67.5644 117.303 70.7812 116.771C73.998 116.25 77.0182 115.343 79.7763 114.214C82.5404 113.086 85.0483 111.717 87.2524 110.191C91.6844 107.145 94.931 103.578 97.2006 100.167C99.4702 96.7401 100.769 93.4741 101.543 90.7613C102.294 88.0378 102.568 85.8569 102.669 84.385C102.747 83.6491 102.729 83.0851 102.758 82.7037C102.764 82.3223 102.782 82.1289 102.782 82.1289C102.782 82.1289 102.806 82.9078 102.723 84.385C102.639 85.8623 102.383 88.0486 101.65 90.7882C100.894 93.5117 99.6072 96.7992 97.3376 100.248C95.0739 103.68 91.8154 107.279 87.3715 110.347C85.1555 111.888 82.6416 113.269 79.8657 114.413C77.0897 115.552 74.0576 116.471 70.817 117.002C67.5883 117.545 64.163 117.76 60.6662 117.518C58.9149 117.427 57.1575 117.174 55.3883 116.857C53.625 116.519 51.8677 116.062 50.1223 115.509C43.1705 113.248 36.5641 109.015 31.8045 103.132C30.6012 101.677 29.5468 100.103 28.5937 98.4698C27.6405 96.8368 26.8304 95.1178 26.1811 93.3344C24.8527 89.7783 24.1914 85.9697 24.1676 82.1235C24.1914 78.272 24.8527 74.4688 26.187 70.9127C26.8363 69.1292 27.6405 67.4103 28.5996 65.7773C29.5527 64.1442 30.6071 62.5703 31.8105 61.1199C36.5701 55.2432 43.1764 51.0103 50.1283 48.7488C51.8737 48.1901 53.631 47.7389 55.3943 47.4004C57.1635 47.0889 58.9208 46.831 60.6722 46.7397C64.1689 46.498 67.5883 46.7129 70.8229 47.2554C74.0576 47.7872 77.0957 48.7058 79.8716 49.8446C82.6476 50.9888 85.1674 52.3693 87.3834 53.911C91.8274 56.9837 95.0858 60.5774 97.3495 64.0099C99.6191 67.4586 100.9 70.7461 101.662 73.4696C102.395 76.2092 102.651 78.3955 102.735 79.8728C102.806 81.35 102.782 82.1289 102.782 82.1289Z" fill="#2C9BD8"/>
<path d="M63.0788 112.136C80.9137 112.136 95.3718 99.098 95.3718 83.0152C95.3718 66.9325 80.9137 53.8949 63.0788 53.8949C45.2439 53.8949 30.7858 66.9325 30.7858 83.0152C30.7858 99.098 45.2439 112.136 63.0788 112.136Z" fill="#E8505B"/>
<path d="M63.3469 86.3887H62.7214C60.5352 86.3887 58.7659 84.7933 58.7659 82.8219V77.7348C58.7659 75.7634 60.5352 74.168 62.7214 74.168H63.3469C65.5331 74.168 67.3023 75.7634 67.3023 77.7348V82.8219C67.3023 84.7933 65.5271 86.3887 63.3469 86.3887Z" fill="#FAFAFA"/>
<path d="M63.0311 88.7254C59.5582 88.7254 56.7405 86.1792 56.7405 83.0529C56.7405 82.9025 56.8716 82.7843 57.0384 82.7843C57.2052 82.7843 57.3362 82.9025 57.3362 83.0529C57.3362 85.8838 59.8918 88.1883 63.0311 88.1883C66.3849 88.1829 68.7261 86.0718 68.7261 83.0529C68.7261 82.9025 68.8571 82.7843 69.0239 82.7843C69.1907 82.7843 69.3218 82.9025 69.3218 83.0529C69.3277 86.3887 66.7364 88.7254 63.0311 88.7254Z" fill="#FAFAFA"/>
<path d="M63.329 88.4568H62.7333V91.2394H63.329V88.4568Z" fill="white"/>
<path d="M66.7603 91.3839H59.308C59.1412 91.3839 59.0102 91.2659 59.0102 91.1156C59.0102 90.9653 59.1412 90.8473 59.308 90.8473H66.7603C66.9271 90.8473 67.0581 90.9653 67.0581 91.1156C67.0581 91.2659 66.9211 91.3839 66.7603 91.3839Z" fill="white"/>
<path d="M56.7882 76.3972C56.7465 76.4671 56.2938 76.322 55.7576 76.1179C55.2215 75.9138 54.7926 75.715 54.8224 75.6452C54.8462 75.5754 55.3287 75.6506 55.8827 75.8654C56.4308 76.0696 56.8299 76.3274 56.7882 76.3972Z" fill="white"/>
<path d="M59.1889 73.518C59.1174 73.5663 58.7302 73.1957 58.3251 72.6961C57.9141 72.1965 57.64 71.7507 57.7115 71.7077C57.783 71.6593 58.1702 72.03 58.5753 72.5296C58.9804 73.0291 59.2604 73.475 59.1889 73.518Z" fill="white"/>
<path d="M63.055 72.4866C62.9716 72.492 62.906 72.0192 62.912 71.4337C62.918 70.8482 62.9954 70.3755 63.0788 70.3809C63.1622 70.3862 63.2277 70.8589 63.2218 71.4337C63.2158 72.0085 63.1384 72.4812 63.055 72.4866Z" fill="white"/>
<path d="M68.0112 71.7292C68.0827 71.7668 67.904 72.1643 67.5525 72.5833C67.2011 73.0023 66.8317 73.2709 66.7662 73.2172C66.7007 73.1634 66.9628 72.8196 67.3023 72.4114C67.6419 72.0139 67.9338 71.6916 68.0112 71.7292Z" fill="white"/>
<path d="M71.3412 75.3659C71.3829 75.4357 70.9897 75.7097 70.4536 75.9836C69.9234 76.2576 69.4588 76.4241 69.4171 76.3543C69.3754 76.2898 69.7686 76.0105 70.3047 75.7365C70.8289 75.4679 71.2936 75.3014 71.3412 75.3659Z" fill="white"/>
<path d="M38.2322 140.294L37.279 139.053H37.2254H36.2306V140.294H35.0869V135.83H37.2314C38.5538 135.83 39.3819 136.448 39.3819 137.447C39.3819 138.119 39.0066 138.608 38.3632 138.855L39.4712 140.289H38.2322V140.294ZM37.1539 136.674H36.2187V138.232H37.1539C37.8569 138.232 38.2083 137.936 38.2083 137.453C38.2083 136.964 37.8569 136.674 37.1539 136.674Z" fill="#263238"/>
<path d="M43.9032 138.86H41.026C41.1332 139.29 41.5383 139.548 42.1161 139.548C42.5212 139.548 42.8071 139.44 43.0692 139.215L43.659 139.789C43.3075 140.155 42.7773 140.343 42.0863 140.343C40.7698 140.343 39.918 139.596 39.918 138.575C39.918 137.549 40.7877 136.808 41.9493 136.808C43.0692 136.808 43.927 137.485 43.927 138.586C43.927 138.672 43.9092 138.78 43.9032 138.86ZM41.0081 138.28H42.8846C42.8071 137.845 42.4437 137.566 41.9493 137.566C41.4489 137.566 41.0915 137.839 41.0081 138.28Z" fill="#263238"/>
<path d="M47.9183 138.339V140.294H46.8877V139.87C46.6852 140.182 46.2861 140.348 45.7261 140.348C44.8325 140.348 44.3024 139.902 44.3024 139.311C44.3024 138.704 44.773 138.285 45.9346 138.285H46.8103C46.8103 137.856 46.5303 137.608 45.9346 137.608C45.5295 137.608 45.1125 137.732 44.8385 137.925L44.4453 137.232C44.8623 136.964 45.4759 136.819 46.0835 136.819C47.2511 136.813 47.9183 137.302 47.9183 138.339ZM46.8162 139.215V138.865H46.0597C45.5414 138.865 45.3806 139.037 45.3806 139.268C45.3806 139.515 45.6129 139.682 46.0001 139.682C46.3754 139.677 46.6911 139.526 46.8162 139.215Z" fill="#263238"/>
<path d="M52.8387 135.567V140.3H51.7843V139.902C51.5103 140.203 51.1052 140.348 50.5989 140.348C49.5266 140.348 48.6986 139.661 48.6986 138.581C48.6986 137.501 49.5266 136.813 50.5989 136.813C51.0635 136.813 51.4627 136.948 51.7367 137.227V135.562H52.8387V135.567ZM51.7546 138.581C51.7546 137.99 51.3316 137.63 50.7836 137.63C50.2296 137.63 49.8066 137.985 49.8066 138.581C49.8066 139.177 50.2296 139.532 50.7836 139.532C51.3316 139.532 51.7546 139.177 51.7546 138.581Z" fill="#263238"/>
<path d="M57.6341 136.867L55.9185 140.509C55.5492 141.336 55.0249 141.589 54.3399 141.589C53.9527 141.589 53.5238 141.476 53.2795 141.277L53.6846 140.568C53.8514 140.703 54.0897 140.783 54.3041 140.783C54.608 140.783 54.7807 140.66 54.9237 140.353L54.9356 140.321L53.2855 136.867H54.4233L55.4896 139.193L56.5619 136.867H57.6341Z" fill="#263238"/>
<path d="M62.5427 140.133C62.3163 140.278 61.9827 140.348 61.6432 140.348C60.7437 140.348 60.2195 139.934 60.2195 139.118V137.711H59.6357V136.948H60.2195V136.11H61.3215V136.948H62.2687V137.711H61.3215V139.107C61.3215 139.403 61.5002 139.558 61.7981 139.558C61.9589 139.558 62.1257 139.515 62.2449 139.43L62.5427 140.133Z" fill="#263238"/>
<path d="M62.7631 138.581C62.7631 137.549 63.6448 136.813 64.854 136.813C66.0633 136.813 66.939 137.549 66.939 138.581C66.939 139.612 66.0633 140.348 64.854 140.348C63.6448 140.348 62.7631 139.612 62.7631 138.581ZM65.825 138.581C65.825 137.99 65.408 137.63 64.854 137.63C64.3 137.63 63.8771 137.985 63.8771 138.581C63.8771 139.177 64.3 139.532 64.854 139.532C65.408 139.532 65.825 139.177 65.825 138.581Z" fill="#263238"/>
<path d="M69.6792 135.567H70.7812V140.3H69.6792V135.567Z" fill="#263238"/>
<path d="M71.6748 135.836C71.6748 135.524 71.9488 135.283 72.3599 135.283C72.7709 135.283 73.0449 135.513 73.0449 135.82C73.0449 136.153 72.7709 136.394 72.3599 136.394C71.9488 136.394 71.6748 136.147 71.6748 135.836ZM71.8059 136.867H72.9079V140.3H71.8059V136.867Z" fill="#263238"/>
<path d="M73.5692 139.977L73.9385 139.263C74.278 139.462 74.7963 139.596 75.2609 139.596C75.7673 139.596 75.9639 139.472 75.9639 139.284C75.9639 138.726 73.6645 139.295 73.6645 137.925C73.6645 137.275 74.3138 136.813 75.4277 136.813C75.952 136.813 76.5298 136.921 76.8932 137.114L76.5238 137.823C76.1485 137.63 75.7732 137.571 75.4277 137.571C74.9333 137.571 74.7189 137.711 74.7189 137.888C74.7189 138.473 77.0183 137.909 77.0183 139.258C77.0183 139.897 76.363 140.348 75.2192 140.348C74.5759 140.348 73.9266 140.187 73.5692 139.977Z" fill="#263238"/>
<path d="M80.1457 140.133C79.9193 140.278 79.5857 140.348 79.2462 140.348C78.3466 140.348 77.8224 139.934 77.8224 139.118V137.711H77.2386V136.948H77.8224V136.11H78.9245V136.948H79.8716V137.711H78.9245V139.107C78.9245 139.403 79.1032 139.558 79.401 139.558C79.5619 139.558 79.7287 139.515 79.8478 139.43L80.1457 140.133Z" fill="#263238"/>
<path d="M84.3573 138.86H81.4801C81.5873 139.29 81.9924 139.548 82.5702 139.548C82.9753 139.548 83.2612 139.44 83.5233 139.215L84.1131 139.789C83.7616 140.155 83.2314 140.343 82.5404 140.343C81.2239 140.343 80.3721 139.596 80.3721 138.575C80.3721 137.549 81.2418 136.808 82.4034 136.808C83.5233 136.808 84.3811 137.485 84.3811 138.586C84.3752 138.672 84.3633 138.78 84.3573 138.86ZM81.4622 138.28H83.3387C83.2612 137.845 82.8978 137.566 82.4034 137.566C81.903 137.566 81.5396 137.839 81.4622 138.28Z" fill="#263238"/>
<path d="M89.0038 138.334V140.3H87.9017V138.489C87.9017 137.936 87.6158 137.678 87.1333 137.678C86.6031 137.678 86.2219 137.974 86.2219 138.602V140.3H85.1198V136.867H86.1742V137.27C86.4721 136.975 86.9188 136.819 87.4311 136.819C88.3247 136.813 89.0038 137.286 89.0038 138.334Z" fill="#263238"/>
<path d="M52.9281 192.954C52.9281 191.906 53.8157 191.138 55.0131 191.138C55.6207 191.138 56.1449 191.326 56.5083 191.691L56.1449 192.008C55.8411 191.718 55.4717 191.589 55.0369 191.589C54.1493 191.589 53.494 192.17 53.494 192.954C53.494 193.738 54.1493 194.318 55.0369 194.318C55.4717 194.318 55.8411 194.184 56.1449 193.894L56.5083 194.211C56.1508 194.576 55.6207 194.769 55.0071 194.769C53.8157 194.769 52.9281 194.001 52.9281 192.954Z" fill="#263238"/>
<path d="M59.5523 193.104V194.726H59.04V194.372C58.8613 194.614 58.5277 194.759 58.063 194.759C57.3899 194.759 56.961 194.436 56.961 193.969C56.961 193.539 57.2708 193.185 58.1584 193.185H59.0102V193.088C59.0102 192.68 58.7481 192.438 58.212 192.438C57.8605 192.438 57.4971 192.551 57.2708 192.728L57.0444 192.363C57.3542 192.137 57.795 192.019 58.2775 192.019C59.0877 192.019 59.5523 192.374 59.5523 193.104ZM59.0102 193.905V193.529H58.1762C57.6401 193.529 57.4912 193.717 57.4912 193.942C57.4912 194.211 57.7354 194.377 58.1464 194.377C58.5575 194.383 58.8732 194.216 59.0102 193.905Z" fill="#263238"/>
<path d="M63.3767 193.185V194.732H62.8346V193.244C62.8346 192.717 62.5427 192.46 62.0304 192.46C61.4585 192.46 61.0892 192.771 61.0892 193.351V194.732H60.5471V192.046H61.0654V192.449C61.2858 192.175 61.667 192.019 62.1376 192.019C62.8644 192.019 63.3767 192.39 63.3767 193.185Z" fill="#263238"/>
<path d="M64.1154 193.384C64.1154 192.583 64.7706 192.014 65.688 192.014C66.2241 192.014 66.665 192.212 66.9032 192.588L66.4922 192.825C66.3016 192.562 66.0097 192.438 65.6821 192.438C65.0983 192.438 64.6574 192.809 64.6574 193.378C64.6574 193.958 65.0983 194.324 65.6821 194.324C66.0097 194.324 66.3016 194.2 66.4922 193.937L66.9032 194.168C66.665 194.544 66.2241 194.748 65.688 194.748C64.7766 194.759 64.1154 194.184 64.1154 193.384Z" fill="#263238"/>
<path d="M70.2332 193.545H67.8207C67.8862 194.017 68.3091 194.329 68.8989 194.329C69.2444 194.329 69.5422 194.222 69.7567 194.007L70.0545 194.318C69.7865 194.603 69.3754 194.753 68.881 194.753C67.9219 194.753 67.2786 194.179 67.2786 193.378C67.2786 192.583 67.916 192.008 68.7738 192.008C69.6316 192.008 70.2452 192.567 70.2452 193.389C70.2452 193.443 70.2392 193.502 70.2332 193.545ZM67.8207 193.195H69.7329C69.6792 192.744 69.298 192.427 68.7797 192.427C68.2555 192.427 67.8743 192.739 67.8207 193.195Z" fill="#263238"/>
<path d="M70.9957 190.966H71.5378V194.726H70.9957V190.966Z" fill="#263238"/>
<path d="M89.528 202.048C89.528 202.048 89.6769 202.032 89.9628 202.016C90.1058 202.005 90.2845 202 90.493 201.978C90.7015 201.946 90.9458 201.914 91.2198 201.871C92.304 201.677 93.9421 201.199 95.5207 199.91C96.3011 199.271 97.0517 198.428 97.6057 197.38C98.1537 196.338 98.5171 195.086 98.4814 193.727C98.4814 193.045 98.4933 192.336 98.4039 191.622C98.3086 190.902 98.0882 190.182 97.7725 189.473C97.427 188.775 96.9862 188.092 96.4202 187.464C95.8424 186.846 95.1514 186.287 94.3651 185.825C92.7865 184.885 90.7968 184.45 88.7297 184.542C86.6507 184.542 84.4884 184.547 82.2485 184.547C77.7688 184.552 72.9794 184.558 67.9457 184.558C57.8724 184.563 46.7983 184.563 35.1762 184.568C33.7465 184.574 32.3347 184.891 31.0778 185.471C29.8149 186.046 28.7486 186.921 27.9384 187.937C27.1164 188.952 26.6041 190.144 26.3956 191.364C26.33 191.67 26.3062 191.976 26.3002 192.282C26.2764 192.588 26.2824 192.9 26.2824 193.212C26.2824 193.84 26.2764 194.447 26.3896 195.049C26.5862 196.252 27.0806 197.402 27.8193 198.39C28.5699 199.373 29.5528 200.195 30.6667 200.791C31.7807 201.387 33.0317 201.758 34.2946 201.871L35.2417 201.914H36.2008C36.8382 201.914 37.4696 201.914 38.1011 201.914C48.1744 201.925 57.2469 201.935 64.8659 201.946C72.479 201.962 78.6386 201.978 82.9097 201.989C85.0304 202 86.6865 202.011 87.8183 202.016C88.3723 202.021 88.7953 202.027 89.0931 202.032C89.3791 202.037 89.528 202.048 89.528 202.048C89.528 202.048 89.3791 202.059 89.0931 202.064C88.7953 202.07 88.3723 202.07 87.8183 202.08C86.6865 202.086 85.0364 202.096 82.9097 202.107C78.6386 202.118 72.479 202.134 64.8659 202.15C57.2469 202.161 48.1744 202.166 38.1011 202.182C37.4696 202.182 36.8382 202.182 36.2008 202.182H35.2417L34.2648 202.139C32.9602 202.027 31.6675 201.645 30.5178 201.033C29.3621 200.421 28.3495 199.572 27.5691 198.557C26.8006 197.536 26.2883 196.349 26.0858 195.102C25.9726 194.485 25.9786 193.845 25.9786 193.228C25.9786 192.916 25.9726 192.605 25.9964 192.288C26.0084 191.971 26.0322 191.654 26.0977 191.337C26.3122 190.074 26.8423 188.839 27.6942 187.791C28.5401 186.744 29.6421 185.842 30.9467 185.24C32.2453 184.638 33.7108 184.311 35.1881 184.305C46.8102 184.311 57.8843 184.311 67.9576 184.316C72.9913 184.321 77.7808 184.327 82.2604 184.327C84.5003 184.332 86.6627 184.332 88.7417 184.332C90.8266 184.246 92.8937 184.697 94.4961 185.67C95.3003 186.148 96.0033 186.723 96.593 187.356C97.1649 188.001 97.6176 188.699 97.9691 189.419C98.2848 190.15 98.5112 190.886 98.6005 191.616C98.6899 192.352 98.672 193.061 98.666 193.738C98.6899 195.119 98.3146 196.392 97.7487 197.45C97.1768 198.514 96.4083 199.362 95.6101 200.002C93.9957 201.291 92.3337 201.758 91.2376 201.935C90.9577 201.973 90.7134 202 90.5049 202.032C90.2905 202.048 90.1118 202.048 89.9688 202.054C89.6769 202.048 89.528 202.048 89.528 202.048Z" fill="#263238"/>
<path d="M108.543 27.8417C108.543 27.9276 106.482 27.992 103.938 27.992C101.394 27.992 99.3332 27.9222 99.3332 27.8417C99.3332 27.7558 101.394 27.6914 103.938 27.6914C106.476 27.6914 108.543 27.7612 108.543 27.8417Z" fill="#263238"/>
<path d="M108.543 25.6715C108.543 25.7574 106.482 25.8218 103.938 25.8218C101.394 25.8218 99.3332 25.752 99.3332 25.6715C99.3332 25.591 101.394 25.5213 103.938 25.5213C106.476 25.5213 108.543 25.591 108.543 25.6715Z" fill="#263238"/>
<path d="M108.543 23.5013C108.543 23.5872 106.482 23.6516 103.938 23.6516C101.394 23.6516 99.3332 23.5818 99.3332 23.5013C99.3332 23.4155 101.394 23.3511 103.938 23.3511C106.476 23.3511 108.543 23.4208 108.543 23.5013Z" fill="#263238"/>
<path d="M16.7094 29.2439C16.7154 29.2385 16.7809 29.2385 16.906 29.2331C17.0609 29.2278 17.2456 29.2224 17.4541 29.217C17.9723 29.2063 18.6514 29.1902 19.4854 29.1741L19.4318 29.2278C19.4258 28.8195 19.4139 28.379 19.408 27.8956C19.408 27.6485 19.3841 27.4175 19.4139 27.1274C19.4675 26.8427 19.7475 26.5902 20.099 26.5634C20.4266 26.558 20.7125 26.5419 21.07 26.558C21.4393 26.601 21.7491 26.9179 21.7371 27.2671C21.7431 27.8848 21.755 28.5348 21.761 29.2063L21.6657 29.1203C22.4877 29.115 23.3455 29.1042 24.2331 29.0988L24.1378 29.1902C24.1259 28.2609 24.1199 27.2939 24.108 26.3055C24.108 26.0584 24.1021 25.8167 24.1021 25.5696C24.1021 25.344 23.9472 25.1936 23.7387 25.0217C23.3574 24.6833 22.9822 24.3502 22.6188 24.0225C22.2494 23.6949 21.892 23.3725 21.5346 23.061C21.3559 22.9052 21.1831 22.7494 21.0104 22.5936C20.8317 22.4379 20.6887 22.2767 20.4802 22.2391C20.2777 22.1908 20.0573 22.2284 19.8905 22.3412C19.7356 22.4593 19.5688 22.6259 19.4139 22.7655C19.0982 23.0502 18.7884 23.3296 18.4906 23.6035C17.9127 24.1461 17.3111 24.6403 16.8703 25.1076C16.6856 25.3655 16.7571 25.6824 16.7392 25.9725C16.7392 26.2572 16.7392 26.5311 16.7392 26.789C16.7333 27.2886 16.7333 27.729 16.7273 28.0997C16.7213 28.4327 16.7213 28.7121 16.7154 28.9377C16.7154 29.1364 16.7154 29.2385 16.7094 29.2439C16.7035 29.2493 16.6975 29.1526 16.6916 28.9646C16.6856 28.7389 16.6737 28.4704 16.6677 28.1373C16.6558 27.7613 16.6499 27.3154 16.632 26.8158C16.626 26.5526 16.6201 26.2787 16.6141 25.9832C16.6141 25.8328 16.6082 25.6824 16.6082 25.5266C16.6082 25.3601 16.6558 25.1936 16.7511 25.0432C17.2277 24.5167 17.7936 24.0548 18.3774 23.4961C18.6752 23.2221 18.979 22.9428 19.2888 22.6527C19.4556 22.5077 19.5867 22.3627 19.7832 22.2122C19.9858 22.0726 20.2717 22.0189 20.5279 22.078C20.8019 22.1317 20.9806 22.3358 21.1414 22.4755C21.3142 22.6312 21.4929 22.7817 21.6657 22.9428C22.0231 23.2544 22.3805 23.5767 22.7498 23.9044C23.1192 24.232 23.4945 24.5651 23.8757 24.8981C23.9651 24.9841 24.0723 25.0593 24.1616 25.1775C24.245 25.2903 24.2927 25.4299 24.2987 25.5696C24.2987 25.8113 24.3046 26.0584 24.3046 26.3055C24.3106 27.2939 24.3225 28.2555 24.3284 29.1902V29.2815H24.2272C23.3455 29.2869 22.4877 29.2922 21.6597 29.2976H21.5644V29.2117C21.5584 28.5402 21.5584 27.8902 21.5525 27.2724C21.5644 26.9931 21.3202 26.746 21.0342 26.7084C20.7364 26.6923 20.3909 26.703 20.1049 26.7084C19.8309 26.7299 19.5986 26.9287 19.5509 27.1596C19.5271 27.3906 19.545 27.6646 19.539 27.9009C19.539 28.379 19.539 28.8249 19.539 29.2331V29.2869H19.4854C18.6395 29.2815 17.9485 29.2761 17.4183 29.2761C17.2098 29.2707 17.0311 29.2707 16.8822 29.2654C16.769 29.2493 16.7035 29.2439 16.7094 29.2439Z" fill="#263238"/>
<path d="M203.39 35.0937C203.474 35.0937 203.545 38.8325 203.545 43.4415C203.545 48.0558 203.474 51.7892 203.39 51.7892C203.307 51.7892 203.235 48.0504 203.235 43.4415C203.235 38.8325 203.307 35.0937 203.39 35.0937Z" fill="#E8505B"/>
<path d="M205.803 36.9255C205.886 36.9255 205.958 39.7779 205.958 43.3018C205.958 46.8203 205.886 49.6781 205.803 49.6781C205.72 49.6781 205.648 46.8257 205.648 43.3018C205.648 39.7779 205.72 36.9255 205.803 36.9255Z" fill="#E8505B"/>
<path d="M208.519 38.7465C208.603 38.7465 208.674 40.8147 208.674 43.3609C208.674 45.9125 208.603 47.9752 208.519 47.9752C208.436 47.9752 208.364 45.9071 208.364 43.3609C208.364 40.8147 208.436 38.7465 208.519 38.7465Z" fill="#E8505B"/>
<path d="M210.89 40.3151C210.974 40.3151 211.045 41.47 211.045 42.8882C211.045 44.3117 210.974 45.4612 210.89 45.4612C210.807 45.4612 210.735 44.3063 210.735 42.8882C210.735 41.47 210.801 40.3151 210.89 40.3151Z" fill="#E8505B"/>
<path d="M212.981 41.5721C213.064 41.5721 213.136 42.2059 213.136 42.9849C213.136 43.7638 213.064 44.3976 212.981 44.3976C212.898 44.3976 212.826 43.7638 212.826 42.9849C212.826 42.2059 212.892 41.5721 212.981 41.5721Z" fill="#E8505B"/>
<path d="M215.346 40.068C215.429 40.068 215.501 41.2229 215.501 42.6411C215.501 44.0646 215.429 45.2141 215.346 45.2141C215.263 45.2141 215.191 44.0592 215.191 42.6411C215.191 41.2176 215.263 40.068 215.346 40.068Z" fill="#E8505B"/>
<path d="M217.574 37.9945C217.657 37.9945 217.729 40.1593 217.729 42.8291C217.729 45.4988 217.657 47.6637 217.574 47.6637C217.491 47.6637 217.419 45.4988 217.419 42.8291C217.419 40.1593 217.491 37.9945 217.574 37.9945Z" fill="#E8505B"/>
<path d="M189.314 38.7465C189.397 38.7465 189.469 40.8147 189.469 43.3609C189.469 45.9125 189.397 47.9752 189.314 47.9752C189.23 47.9752 189.159 45.9071 189.159 43.3609C189.159 40.8147 189.23 38.7465 189.314 38.7465Z" fill="#E8505B"/>
<path d="M191.685 40.3151C191.768 40.3151 191.84 41.47 191.84 42.8881C191.84 44.3117 191.768 45.4612 191.685 45.4612C191.601 45.4612 191.53 44.3063 191.53 42.8881C191.53 41.47 191.595 40.3151 191.685 40.3151Z" fill="#E8505B"/>
<path d="M193.77 41.5721C193.853 41.5721 193.925 42.2059 193.925 42.9848C193.925 43.7637 193.853 44.3976 193.77 44.3976C193.686 44.3976 193.615 43.7637 193.615 42.9848C193.615 42.2059 193.686 41.5721 193.77 41.5721Z" fill="#E8505B"/>
<path d="M196.141 39.3106C196.224 39.3106 196.295 40.7985 196.295 42.6411C196.295 44.4782 196.224 45.9716 196.141 45.9716C196.057 45.9716 195.986 44.4836 195.986 42.6411C195.986 40.8039 196.051 39.3106 196.141 39.3106Z" fill="#E8505B"/>
<path d="M198.369 37.9945C198.452 37.9945 198.523 40.1593 198.523 42.8291C198.523 45.4988 198.452 47.6637 198.369 47.6637C198.285 47.6637 198.214 45.4988 198.214 42.8291C198.214 40.1593 198.285 37.9945 198.369 37.9945Z" fill="#E8505B"/>
<path d="M201.085 36.99C201.168 36.99 201.24 39.7457 201.24 43.146C201.24 46.5463 201.168 49.302 201.085 49.302C201.001 49.302 200.93 46.5463 200.93 43.146C200.93 39.7457 201.001 36.99 201.085 36.99Z" fill="#E8505B"/>
<path d="M186.782 45.2141C186.699 45.2141 186.627 44.0592 186.627 42.6411C186.627 41.2175 186.699 40.068 186.782 40.068C186.866 40.068 186.937 41.2229 186.937 42.6411C186.937 44.0646 186.871 45.2141 186.782 45.2141Z" fill="#E8505B"/>
<path d="M184.691 43.9625C184.608 43.9625 184.536 43.3286 184.536 42.5497C184.536 41.7708 184.608 41.137 184.691 41.137C184.775 41.137 184.846 41.7708 184.846 42.5497C184.852 43.3286 184.781 43.9625 184.691 43.9625Z" fill="#E8505B"/>
<path d="M219.754 40.068C219.838 40.068 219.909 41.2229 219.909 42.6411C219.909 44.0646 219.838 45.2141 219.754 45.2141C219.671 45.2141 219.599 44.0592 219.599 42.6411C219.599 41.2176 219.671 40.068 219.754 40.068Z" fill="#E8505B"/>
<path d="M221.845 41.3196C221.928 41.3196 222 41.9535 222 42.7324C222 43.5113 221.928 44.1452 221.845 44.1452C221.762 44.1452 221.69 43.5113 221.69 42.7324C221.69 41.9535 221.762 41.3196 221.845 41.3196Z" fill="#E8505B"/>
<path d="M200.841 204.616L205.177 215.972C205.177 215.972 219.438 215.811 220.463 217.836L196.343 226.216L188.778 208.768L200.841 204.616Z" fill="#E8505B"/>
<path d="M197.32 217.621C196.903 217.9 196.784 218.486 197.07 218.873C197.362 219.259 198.017 219.377 198.44 219.104C198.863 218.835 199.03 218.137 198.696 217.777C198.363 217.422 197.576 217.325 197.237 217.68" fill="#E0E0E0"/>
<g opacity="0.6">
<path d="M196.349 226.216L195.664 224.432L219.045 217.068C219.045 217.068 220.296 217.116 220.469 217.841L196.349 226.216Z" fill="white"/>
</g>
<path d="M205.523 215.73C205.565 215.837 204.999 216.09 204.564 216.633C204.117 217.164 204.01 217.728 203.885 217.723C203.766 217.739 203.67 217.046 204.212 216.396C204.742 215.741 205.505 215.623 205.523 215.73Z" fill="#263238"/>
<path d="M208.454 215.794C208.525 215.886 208.09 216.246 207.882 216.831C207.655 217.411 207.763 217.932 207.644 217.97C207.542 218.024 207.191 217.433 207.465 216.702C207.739 215.977 208.412 215.692 208.454 215.794Z" fill="#263238"/>
<path d="M211.057 218.024C210.962 218.083 210.568 217.61 210.622 216.923C210.67 216.235 211.128 215.811 211.218 215.886C211.319 215.95 211.099 216.385 211.063 216.949C211.015 217.513 211.17 217.97 211.057 218.024Z" fill="#263238"/>
<path d="M204.218 213.238C204.212 213.35 203.605 213.393 202.961 213.667C202.306 213.925 201.877 214.307 201.776 214.237C201.675 214.183 202.014 213.614 202.783 213.302C203.539 212.99 204.236 213.135 204.218 213.238Z" fill="#263238"/>
<path d="M109.079 200.523L108.811 200.84L103.592 206.985L97.1291 210.981L105.785 226.017L115.316 226.028C115.316 226.028 114.625 223.96 110.044 222.891L109.74 214.634L117.973 206.48" fill="#E8505B"/>
<g opacity="0.6">
<path d="M97.1231 210.987L105.779 226.022L115.31 226.033L114.238 224.738L106.488 224.346L98.4992 210.138L97.1231 210.987Z" fill="white"/>
</g>
<path d="M109.978 219.114C109.907 219.2 109.359 218.921 108.62 218.937C107.881 218.937 107.339 219.232 107.268 219.146C107.179 219.082 107.715 218.566 108.614 218.561C109.514 218.545 110.068 219.05 109.978 219.114Z" fill="#263238"/>
<path d="M109.829 217.068C109.734 217.127 109.311 216.622 108.549 216.487C107.792 216.348 107.184 216.665 107.119 216.579C107.089 216.541 107.196 216.396 107.464 216.267C107.727 216.138 108.161 216.036 108.632 216.122C109.103 216.208 109.46 216.45 109.645 216.665C109.835 216.874 109.877 217.041 109.829 217.068Z" fill="#263238"/>
<path d="M109.889 214.441C109.782 214.489 109.46 213.99 108.799 213.785C108.138 213.571 107.542 213.775 107.488 213.678C107.465 213.635 107.584 213.517 107.846 213.426C108.108 213.334 108.519 213.297 108.936 213.431C109.353 213.565 109.645 213.828 109.788 214.043C109.931 214.258 109.943 214.419 109.889 214.441Z" fill="#263238"/>
<path d="M112.445 212.4C112.331 212.437 112.063 211.948 111.474 211.599C110.896 211.239 110.288 211.202 110.282 211.094C110.252 210.992 110.991 210.847 111.706 211.288C112.427 211.717 112.558 212.389 112.445 212.4Z" fill="#263238"/>
<g opacity="0.6">
<path d="M104.73 210.729C104.73 211.293 104.224 211.75 103.598 211.75C102.973 211.75 102.467 211.293 102.467 210.729C102.467 210.165 102.973 209.708 103.598 209.708C104.224 209.708 104.73 210.165 104.73 210.729Z" fill="white"/>
</g>
<path d="M159.076 132.167C161.328 132.914 150.534 172.939 150.534 172.939L117.967 208.247L107.113 199.814L131.477 166.03L139.12 111.593L156.681 112.453L159.076 132.167Z" fill="#263238"/>
<path d="M174.034 111.593C174.344 112.367 192.435 168.593 192.435 168.593L202.467 206.931L189.367 210.783C189.367 210.783 172.176 174.91 170.108 168.878C168.041 162.845 163.163 154.1 163.163 154.1L153.625 131.372C153.625 131.372 138.381 123.782 139.501 110.959L174.034 111.593Z" fill="#263238"/>
<path d="M204.04 209.671L203.265 205.056L187.491 209.676L189.326 214.554L204.04 209.671Z" fill="#263238"/>
<path d="M139.656 111.593C139.656 111.593 139.686 111.749 139.728 112.044C139.769 112.356 139.829 112.796 139.912 113.366C140.091 114.521 140.311 116.234 140.955 118.34C141.288 119.387 141.735 120.532 142.432 121.687C143.111 122.847 144.058 123.996 145.202 125.119C147.49 127.359 150.653 129.379 154.382 131.06L154.436 131.082L154.453 131.136C155.049 133.177 155.829 135.283 156.681 137.463C157.533 139.644 158.457 141.901 159.428 144.216C161.375 148.852 163.514 153.751 165.736 158.816C168.834 165.816 171.717 172.509 174.475 178.547C177.227 184.585 179.789 189.994 181.933 194.538C184.084 199.083 185.823 202.757 186.979 205.314C187.562 206.593 187.997 207.592 188.283 208.269C188.42 208.602 188.528 208.86 188.605 209.042C188.676 209.219 188.706 209.311 188.706 209.311C188.706 209.311 188.659 209.225 188.575 209.053C188.492 208.87 188.379 208.618 188.23 208.29C187.914 207.608 187.455 206.62 186.871 205.357C185.656 202.811 183.899 199.142 181.737 194.619C179.562 190.085 176.977 184.687 174.213 178.649C171.437 172.616 168.548 165.923 165.45 158.924C163.228 153.858 161.09 148.959 159.153 144.312C158.183 141.992 157.265 139.73 156.419 137.549C155.573 135.363 154.799 133.252 154.203 131.195L154.269 131.27C150.522 129.567 147.347 127.52 145.047 125.248C143.904 124.115 142.956 122.944 142.271 121.762C141.574 120.591 141.134 119.43 140.812 118.372C140.18 116.25 139.99 114.531 139.835 113.371C139.775 112.796 139.722 112.356 139.692 112.044C139.662 111.749 139.656 111.593 139.656 111.593Z" fill="#455A64"/>
<path d="M166.379 133.784C166.385 133.795 166.236 133.891 165.939 134.015C165.641 134.138 165.176 134.262 164.58 134.299C163.407 134.391 161.703 134.015 160.315 132.951C158.939 131.882 158.171 130.545 157.712 129.588C157.486 129.105 157.325 128.702 157.229 128.423C157.134 128.143 157.092 127.982 157.11 127.977C157.158 127.961 157.408 128.568 157.908 129.502C158.409 130.426 159.189 131.71 160.512 132.736C161.834 133.752 163.443 134.138 164.562 134.101C165.712 134.079 166.356 133.73 166.379 133.784Z" fill="#455A64"/>
<path d="M139.311 168.061C139.257 168.136 137.798 167.126 135.671 166.514C133.556 165.88 131.715 165.918 131.721 165.826C131.721 165.794 132.174 165.74 132.919 165.767C133.657 165.794 134.688 165.928 135.766 166.245C136.844 166.568 137.762 167.003 138.381 167.373C139.001 167.749 139.335 168.034 139.311 168.061Z" fill="#455A64"/>
<path d="M203.092 205.105C203.122 205.18 199.655 206.292 195.348 207.586C191.047 208.886 187.533 209.88 187.509 209.805C187.479 209.73 190.946 208.618 195.253 207.323C199.554 206.023 203.069 205.029 203.092 205.105Z" fill="#455A64"/>
<path d="M103.783 203.101L106.684 198.497L119.456 208.253L115.536 212.115L103.783 203.101Z" fill="#263238"/>
<path d="M119.456 208.253C119.444 208.269 119.259 208.134 118.938 207.887C118.568 207.597 118.116 207.243 117.585 206.824C116.448 205.921 114.869 204.691 113.07 203.386C111.283 202.064 109.669 200.861 108.519 199.975C107.941 199.534 107.476 199.169 107.161 198.916C106.845 198.664 106.678 198.514 106.69 198.497C106.702 198.481 106.899 198.599 107.238 198.83C107.578 199.061 108.06 199.4 108.656 199.819C109.847 200.662 111.48 201.844 113.267 203.165C115.066 204.471 116.632 205.739 117.734 206.673C118.288 207.141 118.723 207.527 119.021 207.801C119.313 208.081 119.468 208.242 119.456 208.253Z" fill="#455A64"/>
<path d="M166.773 25.677C167.321 23.8453 168.852 22.9428 170.841 22.3304C172.837 21.718 175.154 22.0565 176.828 23.206C177.948 23.9742 178.824 25.0915 180.158 25.5105C182.35 26.1981 184.918 24.7209 187.014 25.6072C188.259 26.1336 188.98 27.4981 188.647 28.7013C188.313 29.9046 186.967 30.8071 185.597 30.7426C187.026 31.2153 187.473 33.0525 186.633 34.202C185.799 35.3516 184.084 35.7813 182.588 35.5288C181.093 35.2764 179.789 34.4599 178.657 33.5413C177.525 32.6227 176.512 31.586 175.303 30.7533C174.094 29.9207 172.628 29.2922 171.109 29.3621C169.054 29.4641 167.285 30.8608 166.367 32.526C165.45 34.1913 165.242 36.0875 165.122 37.9461C165.009 39.7994 164.974 41.6849 164.36 43.4629C164.288 43.6724 164.181 43.9034 163.949 43.9679C163.615 44.0592 163.329 43.7423 163.163 43.4629C161.292 40.3312 160.107 36.8664 159.708 33.3264C159.475 31.269 159.535 29.3245 160.786 27.5947C162.049 25.8597 165.218 24.5866 166.773 25.677Z" fill="#263238"/>
<path d="M162.793 34.288L161.739 55.0982C161.56 58.6382 162.096 63.8703 168.315 63.8703C173.712 63.505 175.303 58.9551 175.47 55.6569C175.547 54.0883 175.613 52.783 175.637 52.6218C175.637 52.6218 181.534 52.364 182.225 47.1372C182.559 44.6125 182.773 39.3589 182.91 34.6049C183.053 29.5017 178.824 25.1506 173.188 24.6134L172.628 24.5597C166.552 24.2965 162.912 28.8034 162.793 34.288Z" fill="#FFBE9D"/>
<path d="M175.654 52.5412C175.654 52.5412 171.955 52.4606 168.315 49.8768C168.315 49.8768 169.662 53.8143 175.505 53.9003L175.654 52.5412Z" fill="#EB996E"/>
<path d="M180.807 37.9462C180.777 38.3437 180.378 38.6445 179.92 38.623C179.461 38.6015 179.115 38.2631 179.145 37.8656C179.175 37.4681 179.574 37.1672 180.033 37.1887C180.491 37.2102 180.837 37.5486 180.807 37.9462Z" fill="#263238"/>
<path d="M181.361 37.0544C181.248 37.1404 180.67 36.6623 179.777 36.5817C178.889 36.485 178.186 36.8396 178.097 36.7321C178.055 36.6838 178.18 36.5173 178.484 36.3561C178.788 36.195 179.288 36.0607 179.842 36.1144C180.396 36.1681 180.843 36.3991 181.087 36.614C181.343 36.8288 181.415 37.0115 181.361 37.0544Z" fill="#263238"/>
<path d="M172.027 37.3821C171.997 37.7796 171.598 38.0804 171.139 38.059C170.68 38.0375 170.335 37.699 170.365 37.3015C170.394 36.904 170.793 36.6032 171.252 36.6247C171.711 36.6462 172.056 36.9846 172.027 37.3821Z" fill="#263238"/>
<path d="M172.575 36.3615C172.461 36.4474 171.884 35.9693 170.99 35.8888C170.102 35.7921 169.4 36.1466 169.31 36.0392C169.268 35.9908 169.394 35.8243 169.703 35.6632C170.007 35.502 170.508 35.3677 171.062 35.4214C171.616 35.4751 172.062 35.7061 172.307 35.921C172.557 36.1359 172.628 36.3239 172.575 36.3615Z" fill="#263238"/>
<path d="M175.106 42.6357C175.106 42.5874 175.672 42.5551 176.584 42.539C176.816 42.539 177.036 42.5175 177.09 42.3832C177.161 42.2382 177.09 42.0072 177.013 41.7601C176.858 41.2444 176.697 40.7019 176.524 40.1325C175.851 37.8172 175.392 35.921 175.494 35.8995C175.595 35.878 176.226 37.7366 176.899 40.0519C177.06 40.6213 177.215 41.1638 177.358 41.6849C177.418 41.9266 177.531 42.206 177.382 42.5014C177.304 42.6464 177.12 42.7431 176.971 42.7646C176.822 42.7915 176.691 42.7807 176.578 42.7754C175.666 42.7324 175.106 42.684 175.106 42.6357Z" fill="#263238"/>
<path d="M173.176 33.2297C173.063 33.4392 172.181 33.2512 171.127 33.262C170.067 33.2566 169.191 33.45 169.078 33.2405C169.024 33.1384 169.197 32.9504 169.566 32.7678C169.93 32.5905 170.49 32.4401 171.127 32.4347C171.764 32.4347 172.324 32.5798 172.694 32.757C173.057 32.9397 173.23 33.1331 173.176 33.2297Z" fill="#263238"/>
<path d="M181.308 34.6909C181.129 34.8574 180.539 34.6103 179.8 34.5297C179.068 34.4276 178.424 34.519 178.299 34.3148C178.246 34.2181 178.365 34.0409 178.663 33.8958C178.955 33.7508 179.419 33.6541 179.926 33.7132C180.432 33.7777 180.849 33.9818 181.087 34.1967C181.319 34.4169 181.385 34.6103 181.308 34.6909Z" fill="#263238"/>
<path d="M162.805 38.204C162.71 38.1556 158.945 36.759 158.647 40.3473C158.349 43.9357 162.412 43.4629 162.424 43.3609C162.442 43.2588 162.805 38.204 162.805 38.204Z" fill="#FFBE9D"/>
<path d="M161.322 41.9213C161.304 41.9105 161.25 41.9589 161.125 42.0018C161.006 42.0394 160.81 42.0609 160.607 41.975C160.196 41.8084 159.892 41.1799 159.928 40.5353C159.946 40.2077 160.047 39.9015 160.196 39.6544C160.339 39.4019 160.541 39.23 160.756 39.2085C160.97 39.1763 161.113 39.3052 161.149 39.4073C161.197 39.5093 161.161 39.5792 161.185 39.5899C161.197 39.6006 161.274 39.5362 161.256 39.3858C161.244 39.3159 161.209 39.2246 161.119 39.1494C161.03 39.0742 160.893 39.0259 160.744 39.0312C160.434 39.0312 160.136 39.2676 159.976 39.5416C159.797 39.8155 159.672 40.1593 159.654 40.5246C159.618 41.2498 159.976 41.9535 160.536 42.1415C160.81 42.2274 161.048 42.163 161.179 42.0878C161.31 42.0072 161.34 41.932 161.322 41.9213Z" fill="#EB996E"/>
<path d="M184.268 33.6326C181.641 34.0033 178.835 33.1438 177.001 31.4033C175.714 30.1893 174.808 28.5348 173.099 27.8741C171.949 27.4282 170.597 27.5357 169.441 27.9708C168.286 28.4113 167.303 29.1526 166.439 29.9744C167.249 32.7409 166.141 35.6363 165.051 38.3275C164.932 38.623 164.789 38.9453 164.491 39.1064C163.985 39.3858 163.311 39.0635 162.948 38.6391C162.364 37.9569 162.215 37.0598 162.15 36.2057C161.995 34.2504 162.174 32.2628 162.871 30.4042C163.568 28.5509 164.801 26.8373 166.522 25.6394C168.673 24.1461 171.508 23.5337 174.201 23.8345C176.893 24.13 179.431 25.301 181.415 26.9716C182.332 27.7505 183.154 28.6584 183.553 29.7381" fill="#263238"/>
<path d="M175.386 44.9079C175.249 45.2249 175.106 45.5472 174.874 45.8158C174.642 46.0844 174.302 46.2992 173.921 46.3153C173.516 46.3315 173.129 46.1166 172.908 45.8158C172.682 45.5149 172.604 45.1389 172.628 44.7736C172.646 44.446 172.813 44.0538 173.17 44.0162C173.319 44.0001 173.468 44.0538 173.611 44.1022C174.243 44.3332 174.88 44.5641 175.511 44.7951" fill="#EB996E"/>
<path d="M174.624 46.3207C174.612 46.267 174.195 46.4174 173.611 46.2079C173.325 46.1058 173.015 45.9017 172.843 45.5794C172.67 45.2625 172.64 44.8327 172.819 44.4567C172.861 44.3654 172.926 44.2794 172.986 44.1989C173.063 44.129 173.045 44.129 173.129 44.1398C173.206 44.1613 173.331 44.2096 173.432 44.2472C173.54 44.2848 173.641 44.3224 173.742 44.36C174.147 44.5104 174.517 44.6394 174.826 44.7414C175.452 44.9509 175.845 45.0637 175.863 45.0207C175.881 44.9831 175.523 44.8005 174.922 44.5427C174.624 44.4137 174.266 44.2633 173.861 44.0968C173.76 44.0538 173.659 44.0162 173.552 43.9733C173.438 43.9303 173.355 43.8873 173.206 43.8443C173.135 43.8228 173.027 43.8175 172.926 43.8497C172.825 43.8873 172.765 43.9464 172.718 44.0001C172.634 44.1022 172.557 44.2096 172.503 44.3278C172.277 44.7951 172.336 45.3162 172.563 45.6976C172.795 46.0897 173.194 46.31 173.528 46.4013C173.867 46.498 174.165 46.4711 174.35 46.4282C174.54 46.3959 174.63 46.3368 174.624 46.3207Z" fill="#263238"/>
<path d="M194.169 75.0865L183.154 96.3157C182.106 98.3301 179.991 99.7268 177.543 100.006C174.368 100.371 171.306 98.8082 170.025 96.1599L161.804 79.1798L176.125 64.0046L177.519 82.231L186.55 70.687L194.169 75.0865Z" fill="#2C9BD8"/>
<path d="M174.278 89.3969C174.201 89.37 174.838 87.694 175.702 85.6581C176.566 83.6222 177.334 81.9946 177.418 82.0215C177.495 82.0483 176.858 83.7243 175.994 85.7602C175.13 87.7961 174.362 89.4238 174.278 89.3969Z" fill="#263238"/>
<path d="M174.016 112.909L176.59 110.331C177.483 109.434 177.924 108.241 177.811 107.038L176.447 103.922L178.275 66.9376C178.46 63.9401 178.418 59.6212 175.303 58.4072L161.81 54.8081C161.81 54.8081 152.613 56.5808 150.438 60.9104C148.729 64.3108 146.066 87.3073 146.066 87.3073L142.188 96.638C141.741 98.4752 138.786 108.767 138.596 111.131L139.108 112.914H174.016V112.909Z" fill="#2C9BD8"/>
<path d="M176.441 103.922C176.435 103.922 176.429 103.858 176.423 103.729C176.417 103.578 176.417 103.396 176.411 103.17C176.411 102.649 176.411 101.945 176.405 101.07C176.423 99.2326 176.447 96.6917 176.47 93.705V93.6997V93.6943C176.661 91.6101 176.828 89.2895 176.977 86.8453C177.269 82.1343 177.495 77.8691 177.739 74.7803C177.858 73.2386 177.978 71.9924 178.067 71.1275C178.115 70.7193 178.156 70.3916 178.186 70.1391C178.216 69.9135 178.24 69.7953 178.252 69.7953C178.264 69.7953 178.264 69.9135 178.252 70.1445C178.234 70.4023 178.216 70.73 178.192 71.1383C178.138 72.0353 178.055 73.2762 177.966 74.7911C177.793 77.9121 177.555 82.1611 177.293 86.8614C177.138 89.3056 176.965 91.6315 176.756 93.7158V93.705C176.685 96.6917 176.619 99.2326 176.578 101.07C176.548 101.945 176.518 102.649 176.5 103.17C176.488 103.396 176.476 103.578 176.47 103.729C176.459 103.858 176.447 103.922 176.441 103.922Z" fill="#263238"/>
<path d="M152.065 120.242L164.253 116.428L153.685 90.8097L160.917 68.5813C162.019 64.7459 160.095 59.3472 155.841 58.3535C155.657 58.3105 155.317 56.93 155.132 56.9998C153.465 57.6175 149.283 60.1745 147.555 62.6885C146.227 64.6169 145.309 66.7549 144.743 68.9681L140.359 85.9697C139.501 89.2895 139.799 92.7704 141.211 95.9343L152.065 120.242Z" fill="#2C9BD8"/>
<path d="M140.52 94.1778C140.526 94.1778 140.544 94.2154 140.585 94.2959C140.627 94.3873 140.687 94.5054 140.758 94.6612C140.907 94.9943 141.122 95.467 141.396 96.0794C141.95 97.3364 142.748 99.1467 143.761 101.43C145.774 106.033 148.61 112.538 151.951 120.193L151.773 120.118C155.597 118.936 159.773 117.642 164.128 116.293L164.211 116.562C164.122 116.492 163.949 116.331 163.901 116.186L163.776 115.89C163.693 115.692 163.609 115.498 163.52 115.3C163.353 114.902 163.18 114.499 163.008 114.096C162.668 113.285 162.317 112.458 161.971 111.631C158.802 104.035 155.835 96.9066 153.31 90.8526L153.298 90.8204L153.31 90.7828C155.007 84.1487 156.425 78.605 157.42 74.7105C157.92 72.782 158.319 71.2618 158.594 70.209C158.731 69.6986 158.838 69.3065 158.915 69.0218C158.951 68.8982 158.981 68.7962 159.005 68.721C159.022 68.6511 159.04 68.6189 159.04 68.6189C159.046 68.6189 159.04 68.6565 159.022 68.7263C159.005 68.8069 158.981 68.9036 158.957 69.0325C158.891 69.3172 158.796 69.7148 158.677 70.2251C158.421 71.2833 158.045 72.8089 157.575 74.7427C156.604 78.6426 155.222 84.1917 153.572 90.8365L153.566 90.7667C156.103 96.8207 159.088 103.938 162.269 111.534C162.62 112.367 162.966 113.188 163.306 114C163.478 114.402 163.645 114.805 163.818 115.203C163.901 115.402 163.985 115.6 164.068 115.794L164.193 116.084C164.205 116.116 164.205 116.127 164.187 116.159C164.181 116.175 164.169 116.191 164.157 116.213L164.145 116.25V116.272V116.283V116.288L164.175 116.417L164.229 116.557C159.868 117.899 155.686 119.183 151.862 120.36L151.731 120.397L151.683 120.279C148.383 112.608 145.583 106.092 143.594 101.478C142.617 99.1843 141.842 97.3632 141.306 96.1009C141.05 95.4831 140.854 95.005 140.711 94.6666C140.651 94.5108 140.597 94.3926 140.562 94.2959C140.532 94.2207 140.514 94.1778 140.52 94.1778Z" fill="#263238"/>
<path d="M146.995 91.5563C146.977 91.5295 147.269 91.2931 147.823 91.0245C148.377 90.7559 149.199 90.4712 150.158 90.3531C151.117 90.2349 151.999 90.3101 152.607 90.439C153.22 90.5679 153.572 90.7183 153.56 90.7506C153.536 90.8365 152.053 90.3907 150.2 90.6324C148.342 90.8419 147.043 91.6369 146.995 91.5563Z" fill="#263238"/>
<g opacity="0.3">
<path d="M179.574 79.6149L180.581 98.9962C179.52 99.716 178.061 100.006 176.387 100.054C176.417 99.4475 177.525 82.2363 177.525 82.2363L179.574 79.6149Z" fill="black"/>
</g>
<path d="M178.252 64.0099C178.258 64.0207 178.174 64.0637 178.019 64.1442C177.858 64.2194 177.632 64.3537 177.31 64.4719C176.685 64.7405 175.732 65.0413 174.511 65.2616C172.08 65.7128 168.56 65.6752 164.926 64.6868C161.274 63.7038 158.415 61.8236 156.669 60.2605C155.788 59.4708 155.15 58.7725 154.745 58.2675C154.531 58.0204 154.394 57.8109 154.293 57.6766C154.191 57.537 154.15 57.4618 154.156 57.4564C154.179 57.4456 154.406 57.7196 154.841 58.1977C155.269 58.6812 155.931 59.3526 156.818 60.1154C158.588 61.6303 161.417 63.4513 165.015 64.4182C168.595 65.3959 172.068 65.4603 174.469 65.0628C175.672 64.8694 176.625 64.6062 177.257 64.3699C177.9 64.1442 178.24 63.9831 178.252 64.0099Z" fill="#FAFAFA"/>
<path d="M157.858 69.8165C157.872 69.8328 157.71 69.9642 157.407 70.1877C157.108 70.4152 156.65 70.7144 156.074 71.0584C154.919 71.7422 153.216 72.5273 151.247 73.0021C149.279 73.4689 147.468 73.5328 146.192 73.4512C145.553 73.4104 145.042 73.353 144.696 73.288C144.346 73.2269 144.159 73.182 144.161 73.1661C144.172 73.1145 144.951 73.2189 146.218 73.2444C147.486 73.2699 149.265 73.1772 151.199 72.7175C153.131 72.2537 154.813 71.5079 155.977 70.8802C157.153 70.2488 157.835 69.772 157.858 69.8165Z" fill="#FAFAFA"/>
<path d="M177.072 79.6149C177.078 79.631 176.81 79.7277 176.31 79.8835C175.815 80.0447 175.077 80.2273 174.153 80.4153C173.23 80.5979 172.116 80.7537 170.871 80.8343C169.626 80.9041 168.244 80.8988 166.808 80.7698C163.931 80.5013 161.417 79.8029 159.66 79.1798C158.784 78.8682 158.087 78.5889 157.617 78.374C157.146 78.1645 156.89 78.0356 156.896 78.0195C156.908 78.0034 157.176 78.0947 157.664 78.272C158.147 78.4546 158.856 78.7071 159.737 78.9918C161.501 79.5612 163.997 80.2219 166.838 80.4851C168.256 80.6141 169.62 80.6248 170.853 80.5711C172.086 80.5066 173.194 80.3723 174.112 80.2166C175.946 79.8996 177.054 79.5612 177.072 79.6149Z" fill="#FAFAFA"/>
<path d="M176.28 94.2583C176.286 94.2745 175.988 94.3926 175.446 94.586C175.172 94.6881 174.838 94.8009 174.433 94.9083C174.034 95.0158 173.581 95.1608 173.069 95.2575C172.557 95.3703 171.997 95.4939 171.383 95.5744C170.776 95.6872 170.114 95.741 169.423 95.8108C168.035 95.9129 166.498 95.9236 164.896 95.7893C163.294 95.6443 161.792 95.3542 160.452 95.0104C159.785 94.8224 159.154 94.6505 158.582 94.441C157.998 94.253 157.474 94.0327 156.997 93.834C156.515 93.646 156.104 93.4257 155.734 93.2538C155.365 93.0819 155.055 92.91 154.811 92.765C154.316 92.4803 154.048 92.3191 154.06 92.303C154.072 92.2869 154.364 92.4212 154.876 92.6737C155.133 92.8026 155.442 92.9584 155.818 93.1195C156.193 93.2807 156.604 93.4848 157.092 93.6567C157.569 93.8447 158.093 94.0489 158.677 94.2261C159.249 94.4249 159.88 94.5914 160.536 94.7687C161.864 95.091 163.353 95.3703 164.932 95.5153C166.516 95.6496 168.029 95.6443 169.406 95.5583C170.091 95.4939 170.746 95.4509 171.348 95.3542C171.955 95.279 172.515 95.1715 173.021 95.0695C173.534 94.9835 173.986 94.8546 174.386 94.7633C174.791 94.672 175.13 94.5753 175.404 94.4893C175.958 94.3174 176.274 94.2369 176.28 94.2583Z" fill="#FAFAFA"/>
<path d="M186.097 91.9377C186.091 91.97 185.466 91.884 184.507 91.594C183.547 91.3092 182.255 90.7882 180.968 90.0093C179.681 89.225 178.669 88.3387 178.013 87.6403C177.358 86.942 177.036 86.4585 177.066 86.4371C177.108 86.4102 177.489 86.8507 178.174 87.506C178.859 88.1614 179.878 89.0048 181.141 89.7729C182.404 90.5411 183.649 91.0729 184.578 91.4059C185.513 91.739 186.115 91.8948 186.097 91.9377Z" fill="#FAFAFA"/>
<path d="M191.178 80.7C191.166 80.7322 190.618 80.6248 189.767 80.3294C188.921 80.0339 187.783 79.529 186.651 78.8038C185.519 78.0732 184.62 77.2728 184.03 76.6497C183.44 76.0266 183.148 75.5915 183.178 75.57C183.256 75.5109 184.584 77.1546 186.824 78.5728C189.058 80.0178 191.214 80.6141 191.178 80.7Z" fill="#FAFAFA"/>
<path d="M153.852 87.7209C153.852 87.7424 153.661 87.7746 153.316 87.8283C152.97 87.8821 152.458 87.925 151.826 87.9465C150.563 87.9949 148.8 87.8874 146.924 87.4469C145.047 87.0011 143.457 86.3081 142.379 85.7065C141.842 85.4057 141.419 85.1425 141.145 84.9437C140.871 84.7449 140.723 84.6268 140.734 84.616C140.764 84.5784 141.396 84.992 142.486 85.54C143.576 86.0879 145.155 86.7379 146.995 87.1783C148.836 87.6135 150.569 87.7478 151.814 87.7531C153.071 87.7531 153.846 87.6726 153.852 87.7209Z" fill="#FAFAFA"/>
<path d="M155.18 95.9666C155.18 96.0149 154.453 96.0042 153.304 96.1277C152.154 96.2459 150.575 96.5521 148.943 97.1645C147.311 97.7876 145.971 98.5934 145.071 99.2541C144.166 99.9094 143.671 100.388 143.635 100.355C143.618 100.345 143.731 100.21 143.945 99.99C144.154 99.7644 144.493 99.4582 144.934 99.1037C145.81 98.3946 147.162 97.5405 148.824 96.9066C150.492 96.2781 152.112 95.9988 153.286 95.929C153.876 95.8914 154.352 95.886 154.68 95.9128C155.001 95.929 155.18 95.9451 155.18 95.9666Z" fill="#FAFAFA"/>
<path d="M161.608 110.358C161.602 110.411 160.845 110.293 159.624 110.304C159.016 110.304 158.29 110.363 157.497 110.481C156.705 110.61 155.847 110.803 154.978 111.093C154.108 111.389 153.322 111.754 152.631 112.125C151.946 112.506 151.362 112.893 150.897 113.253C149.968 113.967 149.485 114.499 149.438 114.467C149.42 114.456 149.533 114.317 149.747 114.069C149.956 113.822 150.301 113.489 150.754 113.108C151.207 112.721 151.791 112.313 152.482 111.91C153.179 111.518 153.983 111.142 154.87 110.836C155.764 110.54 156.646 110.347 157.456 110.229C158.272 110.127 159.011 110.089 159.63 110.11C160.25 110.132 160.75 110.18 161.09 110.245C161.423 110.298 161.608 110.341 161.608 110.358Z" fill="#FAFAFA"/>
<path d="M145.691 106.479C145.679 106.554 144.344 106.474 142.712 106.291C141.074 106.114 139.757 105.904 139.769 105.829C139.781 105.754 141.116 105.834 142.748 106.017C144.38 106.194 145.697 106.404 145.691 106.479Z" fill="#FAFAFA"/>
<g opacity="0.3">
<path d="M141.497 99.195C141.711 102.074 141.944 103.799 142.897 106.549C143.51 108.311 141.437 111.093 143.856 112.909H148.604C146.286 107.768 144.076 102.38 141.944 97.5351" fill="black"/>
</g>
<path d="M175.654 104.304C175.672 104.32 175.541 104.449 175.297 104.669C175.059 104.894 174.677 105.19 174.177 105.528C173.683 105.867 173.051 106.216 172.313 106.554C171.574 106.877 170.728 107.177 169.811 107.398C168.887 107.607 167.988 107.72 167.166 107.763C166.344 107.795 165.599 107.768 164.985 107.688C164.372 107.613 163.877 107.521 163.544 107.43C163.21 107.344 163.031 107.285 163.037 107.269C163.049 107.22 163.788 107.398 165.009 107.489C165.617 107.543 166.344 107.548 167.148 107.505C167.952 107.446 168.828 107.333 169.727 107.124C170.627 106.909 171.455 106.624 172.187 106.318C172.914 106.001 173.546 105.679 174.046 105.367C175.071 104.744 175.619 104.266 175.654 104.304Z" fill="#263238"/>
<path d="M169.352 107.349C169.37 107.382 168.947 107.602 168.208 107.849C167.469 108.096 166.403 108.348 165.2 108.429C163.997 108.51 162.906 108.418 162.132 108.306C161.358 108.187 160.893 108.064 160.899 108.032C160.917 107.935 162.823 108.306 165.176 108.155C167.541 108.005 169.316 107.263 169.352 107.349Z" fill="#FAFAFA"/>
<path d="M196.784 64.1872L202.622 63.8112C202.622 63.8112 203.897 65.2723 202.878 66.4111C201.853 67.5499 199.923 70.542 199.923 70.542L195.354 71.1222L193.525 74.0927L186.633 70.0639L189.761 64.4343L194.83 60.427L198.059 60.4861L199.87 62.436C199.87 62.436 197.88 63.3224 196.927 61.8827L195.384 62.1567L195.366 62.9624C195.342 63.6715 196.004 64.2356 196.784 64.1872Z" fill="#FFBE9D"/>
<path d="M202.55 64.0046L206.518 62.9732C206.518 62.9732 207.423 62.8711 207.846 63.4298L207.965 63.8004L203.086 65.6967L202.55 64.0046Z" fill="#FFBE9D"/>
<path d="M193.865 67.9421C193.829 67.9152 194.056 67.6251 194.401 67.1632C194.741 66.7012 195.217 66.0351 195.348 65.2132C195.414 64.8049 195.366 64.4182 195.235 64.0744C195.176 63.8971 195.104 63.7252 195.074 63.5426C195.038 63.3599 195.074 63.188 195.098 63.0484C195.217 62.4843 195.36 62.1513 195.396 62.162C195.444 62.1728 195.378 62.5219 195.313 63.0752C195.259 63.3599 195.336 63.6285 195.497 63.9884C195.652 64.3483 195.724 64.8049 195.646 65.2508C195.503 66.1586 194.955 66.8408 194.568 67.2813C194.181 67.7218 193.901 67.9635 193.865 67.9421Z" fill="#EB996E"/>
<path d="M210.08 59.7233C210.11 59.8253 210.676 60.9641 210.676 60.9641L194.514 68.1999L193.704 66.8355L210.08 59.7233Z" fill="#263238"/>
<path d="M199.876 70.3003C200.275 70.0209 200.179 69.4139 199.822 69.0916C199.459 68.7693 198.934 68.6619 198.44 68.5706C197.63 68.4201 196.802 68.2859 195.974 68.3073C195.7 68.3127 195.42 68.3396 195.182 68.4685C194.949 68.592 194.77 68.8391 194.824 69.0809C194.89 69.3763 195.235 69.5375 195.545 69.6449C196.379 69.935 197.255 70.1337 198.136 70.2412" fill="#FFBE9D"/>
<path d="M198.142 70.2465C198.136 70.2788 197.523 70.268 196.564 70.0532C196.325 69.9994 196.063 69.935 195.789 69.849C195.521 69.7577 195.205 69.6933 194.919 69.4623C194.782 69.3495 194.663 69.1668 194.681 68.9627C194.693 68.7639 194.8 68.592 194.955 68.4631C195.277 68.1945 195.712 68.173 196.081 68.1677C196.849 68.1569 197.564 68.2751 198.202 68.3933C198.827 68.5061 199.453 68.6296 199.846 68.9681C200.251 69.3119 200.275 69.7577 200.173 69.9994C200.066 70.2573 199.888 70.311 199.888 70.3003C199.864 70.2841 200.007 70.1982 200.06 69.9726C200.114 69.7577 200.048 69.3763 199.703 69.1185C199.351 68.8499 198.785 68.7532 198.148 68.6511C197.517 68.5491 196.82 68.4416 196.087 68.4524C195.724 68.4524 195.372 68.49 195.164 68.6672C194.937 68.8499 194.919 69.1185 195.122 69.2796C195.318 69.4515 195.616 69.5375 195.878 69.6342C196.147 69.7255 196.397 69.8007 196.629 69.8651C197.546 70.1176 198.148 70.2036 198.142 70.2465Z" fill="#EB996E"/>
<path d="M201.871 67.4425C200.596 66.9375 199.667 66.669 198.392 66.1694C197.975 66.0029 197.523 65.8363 197.082 65.9277C196.641 66.019 196.278 66.5024 196.528 66.8462C196.617 66.9698 196.754 67.045 196.891 67.1202C198.124 67.797 199.363 68.4739 200.596 69.1507" fill="#FFBE9D"/>
<path d="M200.602 69.1507C200.579 69.1829 200.019 68.9197 199.137 68.4631C198.666 68.216 198.148 67.9421 197.588 67.652C197.296 67.4908 196.986 67.3297 196.677 67.1578C196.51 67.0665 196.319 66.8892 196.301 66.6582C196.284 66.4326 196.391 66.2338 196.534 66.0781C196.683 65.9276 196.891 65.8095 197.112 65.7826C197.326 65.7504 197.534 65.7665 197.725 65.8095C198.112 65.8954 198.428 66.0458 198.732 66.164C199.328 66.3896 199.882 66.5991 200.382 66.7925C201.323 67.147 201.889 67.4156 201.871 67.4479C201.853 67.4855 201.264 67.2813 200.305 66.9751C199.822 66.8194 199.25 66.6367 198.625 66.4004C198.309 66.2876 197.993 66.1425 197.66 66.0781C197.326 66.0082 196.975 66.0351 196.76 66.2661C196.653 66.3735 196.587 66.5132 196.599 66.6367C196.611 66.7549 196.695 66.8516 196.838 66.9375C197.141 67.1094 197.439 67.276 197.731 67.4371C198.279 67.7487 198.785 68.0388 199.244 68.302C200.102 68.7962 200.62 69.1185 200.602 69.1507Z" fill="#EB996E"/>
<path d="M203.092 65.702C201.788 65.2723 200.906 64.9769 199.602 64.5525C199.173 64.4128 198.714 64.2732 198.279 64.386C197.844 64.5041 197.523 65.0037 197.791 65.3368C197.886 65.4549 198.035 65.5248 198.178 65.5892C199.459 66.1909 200.739 66.7979 202.02 67.3995" fill="#FFBE9D"/>
<path d="M202.014 67.3995C201.996 67.4317 201.418 67.2008 200.507 66.7979C200.025 66.5776 199.488 66.3359 198.911 66.0781C198.607 65.9384 198.291 65.7934 197.969 65.6376C197.803 65.557 197.594 65.4012 197.552 65.1702C197.511 64.95 197.594 64.7351 197.725 64.574C197.862 64.4128 198.053 64.2839 198.273 64.2355C198.482 64.1872 198.696 64.1926 198.887 64.2141C199.28 64.2731 199.608 64.4021 199.917 64.5095C200.519 64.719 201.079 64.9124 201.585 65.0897C202.532 65.4281 203.11 65.6537 203.092 65.6913C203.08 65.7289 202.473 65.5677 201.508 65.2723C200.996 65.1111 200.43 64.9392 199.822 64.7459C199.5 64.6492 199.179 64.5256 198.845 64.4826C198.511 64.4397 198.166 64.488 197.975 64.7351C197.457 65.3206 198.529 65.5355 199.048 65.8417C199.614 66.121 200.138 66.3789 200.614 66.6152C201.496 67.0718 202.032 67.3673 202.014 67.3995Z" fill="#EB996E"/>
<path d="M202.836 60.0778C202.801 60.0671 202.908 59.7609 203.247 59.358C203.581 58.9551 204.183 58.4663 204.999 58.1977C205.815 57.9291 206.625 57.9506 207.167 58.0634C207.715 58.1762 208.013 58.3481 207.995 58.375C207.977 58.4179 207.655 58.3159 207.131 58.2568C206.607 58.1977 205.862 58.2138 205.106 58.4609C204.355 58.708 203.772 59.1377 203.414 59.4869C203.051 59.8361 202.878 60.0993 202.836 60.0778Z" fill="#263238"/>
<path d="M201.454 59.4171C201.424 59.4063 201.585 58.9551 202.121 58.3803C202.652 57.8056 203.611 57.1556 204.844 56.8547C206.077 56.5539 207.256 56.6506 208.055 56.8171C208.859 56.9837 209.312 57.1985 209.3 57.2308C209.282 57.2737 208.805 57.1287 208.013 57.0105C207.227 56.8977 206.101 56.8386 204.927 57.1233C203.76 57.408 202.83 57.9989 202.282 58.5146C201.728 59.0303 201.502 59.4439 201.454 59.4171Z" fill="#263238"/>
<path d="M199.459 58.8262C199.441 58.8154 199.518 58.6811 199.691 58.4448C199.858 58.2138 200.132 57.8915 200.519 57.5316C201.276 56.8118 202.55 55.963 204.177 55.5118C205.803 55.0552 207.387 55.1089 208.46 55.3184C209.002 55.4205 209.425 55.544 209.711 55.6461C209.997 55.7482 210.146 55.8234 210.14 55.8395C210.122 55.8878 209.49 55.6568 208.424 55.5064C207.364 55.356 205.839 55.3345 204.266 55.775C202.693 56.2155 201.448 57.0051 200.668 57.6712C199.882 58.3427 199.5 58.853 199.459 58.8262Z" fill="#263238"/>
<path d="M198.041 58.2192C198.023 58.2138 198.077 58.0258 198.232 57.7089C198.38 57.3919 198.666 56.9514 199.113 56.4787C199.56 56.0006 200.185 55.5118 200.954 55.0713C201.722 54.6362 202.634 54.2441 203.623 53.9379C205.618 53.2933 207.59 53.3738 208.924 53.6263C209.597 53.7499 210.122 53.9056 210.479 54.0292C210.837 54.1527 211.021 54.2387 211.015 54.2548C210.997 54.3032 210.211 54.0185 208.883 53.8197C207.566 53.6209 205.66 53.578 203.724 54.2011C201.776 54.792 200.179 55.7106 199.28 56.6076C198.363 57.4994 198.1 58.246 198.041 58.2192Z" fill="#263238"/>
<path d="M164.842 119.833C163.627 119.447 163.752 120.209 164.193 121.096C161.882 122.412 159.356 124.05 156.622 124.066L153.715 118.2L161.965 115.654L162.114 116.035C162.358 116.256 163.234 116.997 164.825 117.964C165.319 118.265 165.861 118.48 166.439 118.614C167.136 118.775 168.071 118.952 168.613 118.909C169.286 118.856 169.685 119.565 169.227 119.935C168.756 120.295 166.904 120.489 164.842 119.833Z" fill="#FFBE9D"/>
<path d="M165.087 120.494C165.11 120.516 164.753 120.897 164.068 121.413C163.389 121.934 162.364 122.573 161.131 123.11C159.898 123.642 158.701 123.959 157.825 124.115C156.949 124.27 156.395 124.287 156.389 124.254C156.366 124.163 158.57 123.921 160.994 122.858C163.431 121.821 165.021 120.424 165.087 120.494Z" fill="#455A64"/>
</g>
<defs>
<clipPath id="clip0_1_2191">
<rect width="222" height="227" fill="white"/>
</clipPath>
</defs>
</svg>
