<svg width="24" height="24" viewBox="0 0 24 24" fill="none" xmlns="http://www.w3.org/2000/svg">
<path d="M15 14.25C15.7417 14.25 16.4667 14.0301 17.0834 13.618C17.7001 13.206 18.1807 12.6203 18.4645 11.9351C18.7484 11.2498 18.8226 10.4958 18.6779 9.76841C18.5333 9.04098 18.1761 8.37279 17.6517 7.84835C17.1272 7.3239 16.459 6.96675 15.7316 6.82205C15.0042 6.67736 14.2502 6.75162 13.5649 7.03545C12.8797 7.31928 12.294 7.79993 11.882 8.41661C11.4699 9.03329 11.25 9.75832 11.25 10.5C11.25 11.4946 11.6451 12.4484 12.3483 13.1516C13.0516 13.8549 14.0054 14.25 15 14.25ZM15 8.25C15.445 8.25 15.88 8.38196 16.25 8.62919C16.62 8.87642 16.9084 9.22783 17.0787 9.63896C17.249 10.0501 17.2936 10.5025 17.2068 10.939C17.12 11.3754 16.9057 11.7763 16.591 12.091C16.2763 12.4057 15.8754 12.6199 15.439 12.7068C15.0025 12.7936 14.5501 12.749 14.139 12.5787C13.7278 12.4084 13.3764 12.12 13.1292 11.75C12.882 11.38 12.75 10.945 12.75 10.5C12.75 9.90326 12.9871 9.33096 13.409 8.90901C13.831 8.48705 14.4033 8.25 15 8.25Z" fill="#063455"/>
<path d="M6.70508 7.5C7.29842 7.5 7.87844 7.32405 8.37179 6.99441C8.86514 6.66476 9.24965 6.19623 9.47672 5.64805C9.70378 5.09987 9.76319 4.49667 9.64743 3.91473C9.53168 3.33279 9.24596 2.79824 8.8264 2.37868C8.40684 1.95912 7.87229 1.6734 7.29035 1.55764C6.70841 1.44189 6.10521 1.5013 5.55703 1.72836C5.00885 1.95542 4.54031 2.33994 4.21067 2.83329C3.88102 3.32664 3.70508 3.90666 3.70508 4.5C3.70508 5.29565 4.02115 6.05871 4.58376 6.62132C5.14637 7.18393 5.90943 7.5 6.70508 7.5ZM6.70508 3C7.00175 3 7.29176 3.08797 7.53843 3.25279C7.78511 3.41762 7.97737 3.65188 8.0909 3.92597C8.20443 4.20006 8.23413 4.50166 8.17626 4.79263C8.11838 5.08361 7.97552 5.35088 7.76574 5.56066C7.55596 5.77044 7.28868 5.9133 6.99771 5.97118C6.70674 6.02906 6.40514 5.99935 6.13105 5.88582C5.85696 5.77229 5.6227 5.58003 5.45787 5.33335C5.29305 5.08668 5.20508 4.79667 5.20508 4.5C5.20508 4.10217 5.36311 3.72064 5.64442 3.43934C5.92572 3.15803 6.30725 3 6.70508 3Z" fill="#063455"/>
<path d="M18.75 15H11.25C10.2554 15 9.30161 15.3951 8.59835 16.0983C7.89509 16.8016 7.5 17.7554 7.5 18.75V22.5H9V18.75C9 18.1533 9.23705 17.581 9.65901 17.159C10.081 16.7371 10.6533 16.5 11.25 16.5H18.75C19.3467 16.5 19.919 16.7371 20.341 17.159C20.7629 17.581 21 18.1533 21 18.75V22.5H22.5V18.75C22.5 17.7554 22.1049 16.8016 21.4017 16.0983C20.6984 15.3951 19.7446 15 18.75 15Z" fill="#063455"/>
<path d="M9.75 8.25H4.5C3.70435 8.25 2.94129 8.56607 2.37868 9.12868C1.81607 9.69129 1.5 10.4544 1.5 11.25V14.25H3V11.25C3 10.8522 3.15804 10.4706 3.43934 10.1893C3.72064 9.90804 4.10218 9.75 4.5 9.75H9.75V8.25Z" fill="#063455"/>
</svg>
