<svg width="24" height="24" viewBox="0 0 24 24" fill="none" xmlns="http://www.w3.org/2000/svg">
<path d="M21.8906 0H2.10938C0.943922 0 0 1.3508 0 3V21C0 22.659 0.950859 24 2.10938 24H21.8906C23.0463 24 24 22.6647 24 21V3C24 1.35373 23.0598 0 21.8906 0ZM21.5952 2C21.1642 2.60967 13.7476 13.1022 13.4916 13.4645C13.0931 14.0311 12.5634 14.3431 12 14.3431C11.4366 14.3431 10.9069 14.0311 10.5071 13.4626C10.3349 13.2189 3.00014 2.84227 2.40478 2H21.5952ZM1.40625 20.5929V3.40833L7.48303 12.0053L1.40625 20.5929ZM2.40567 22L8.48006 13.4158L9.51408 14.8787C10.1781 15.8231 11.061 16.3431 12 16.3431C12.939 16.3431 13.8219 15.8231 14.4846 14.8805L15.5199 13.4158L21.5943 22H2.40567ZM22.5938 20.5929L16.517 12.0053L22.5938 3.40833V20.5929Z" fill="#063455"/>
</svg>
