<svg width="188" height="228" viewBox="0 0 188 228" fill="none" xmlns="http://www.w3.org/2000/svg">
<path d="M184.636 93.8182C184.636 164.455 93.8182 225 93.8182 225C93.8182 225 3 164.455 3 93.8182C3 69.7317 12.5683 46.6317 29.6 29.6C46.6317 12.5683 69.7317 3 93.8182 3C117.905 3 141.005 12.5683 158.036 29.6C175.068 46.6317 184.636 69.7317 184.636 93.8182Z" stroke="#063455" stroke-width="6" stroke-linecap="round" stroke-linejoin="round"/>
<path d="M93.8181 124.091C110.537 124.091 124.091 110.537 124.091 93.8182C124.091 77.099 110.537 63.5455 93.8181 63.5455C77.099 63.5455 63.5454 77.099 63.5454 93.8182C63.5454 110.537 77.099 124.091 93.8181 124.091Z" stroke="#063455" stroke-width="6" stroke-linecap="round" stroke-linejoin="round"/>
</svg>
