<svg width="19" height="25" viewBox="0 0 19 25" fill="none" xmlns="http://www.w3.org/2000/svg">
<path d="M9.5293 0.705933C5.7793 0.705933 2.7793 3.70593 2.7793 7.45593V10.4559C1.5043 10.4559 0.529297 11.4309 0.529297 12.7059V22.4559C0.529297 23.7309 1.5043 24.7059 2.7793 24.7059H16.2793C17.5543 24.7059 18.5293 23.7309 18.5293 22.4559V12.7059C18.5293 11.4309 17.5543 10.4559 16.2793 10.4559V7.45593C16.2793 3.70593 13.2793 0.705933 9.5293 0.705933ZM17.0293 12.7059V22.4559C17.0293 22.9059 16.7293 23.2059 16.2793 23.2059H2.7793C2.3293 23.2059 2.0293 22.9059 2.0293 22.4559V12.7059C2.0293 12.2559 2.3293 11.9559 2.7793 11.9559H3.5293H15.5293H16.2793C16.7293 11.9559 17.0293 12.2559 17.0293 12.7059ZM4.2793 10.4559V7.45593C4.2793 4.53093 6.6043 2.20593 9.5293 2.20593C12.4543 2.20593 14.7793 4.53093 14.7793 7.45593V10.4559H4.2793Z" fill="#063455"/>
</svg>
