<svg width="18" height="24" viewBox="0 0 18 24" fill="none" xmlns="http://www.w3.org/2000/svg">
<path d="M15 0H3C1.7565 0 0.75 1.00725 0.75 2.25V21.75C0.75 22.9935 1.75725 24 3 24H15C16.242 24 17.25 22.992 17.25 21.75V2.25C17.25 1.0065 16.242 0 15 0ZM15.75 21.75C15.75 22.1632 15.4132 22.5 15 22.5H3C2.586 22.5 2.25 22.1647 2.25 21.75V20.247H15.75V21.75ZM15.75 19.497H2.25V4.5H15.75V19.497ZM15.75 3.75H2.25V2.25C2.25 1.836 2.586 1.5 3 1.5H15C15.4132 1.5 15.75 1.836 15.75 2.25V3.75Z" fill="#063455"/>
</svg>
