<svg width="240" height="236" viewBox="0 0 240 236" fill="none" xmlns="http://www.w3.org/2000/svg">
<g clip-path="url(#clip0_1_2844)">
<path d="M146.25 55.1571C144.737 54.3654 143.316 52.9346 141.981 50.859C140.645 48.7892 139.978 46.3404 139.978 43.5183C139.978 40.7868 140.714 38.7395 142.181 37.3709C143.647 36.0023 145.805 34.9673 148.653 34.2661L159.062 31.7551C163.508 30.6127 165.734 28.4976 165.734 25.4097C165.734 23.7357 164.912 22.2823 163.263 21.0437C161.613 19.8109 158.794 19.1944 154.788 19.1944C151.141 19.1944 147.717 19.6582 144.515 20.5857C141.313 21.5131 138.734 22.5933 136.776 23.8262C135.264 22.6838 133.974 21.2926 132.907 19.6638C131.839 18.0351 131.303 16.0726 131.303 13.7822C131.303 11.4918 131.971 9.4841 133.306 7.76486C134.642 6.04561 136.485 4.63742 138.842 3.53461C141.199 2.43181 144.001 1.61743 147.249 1.08582C150.496 0.554216 154.074 0.294067 157.989 0.294067C168.485 0.294067 176.423 2.60713 181.811 7.23325C187.192 11.8594 189.886 17.922 189.886 25.4154C189.886 39.5199 179.83 48.5573 159.73 52.5217L146.25 55.1571ZM141.844 72.4796C141.844 68.8658 142.98 65.8911 145.245 63.5554C147.517 61.2197 150.65 60.0491 154.651 60.0491C158.651 60.0491 161.79 61.2197 164.056 63.5554C166.322 65.8911 167.457 68.8658 167.457 72.4796C167.457 76.0934 166.322 79.0682 164.056 81.4039C161.79 83.7395 158.651 84.9102 154.651 84.9102C150.65 84.9102 147.511 83.7395 145.245 81.4039C142.98 79.0682 141.844 76.0934 141.844 72.4796Z" fill="#4CE019" stroke="#4CE019" stroke-miterlimit="10" stroke-linecap="round" stroke-linejoin="round"/>
<path d="M99.1265 145.157L100.256 235.717H144.96L141.285 146.277L99.1265 145.157Z" fill="#263238" stroke="#263238" stroke-miterlimit="10" stroke-linecap="round" stroke-linejoin="round"/>
<path d="M99.1265 112.803L100.256 203.368H144.96L141.285 113.922L99.1265 112.803Z" fill="white" stroke="#263238" stroke-miterlimit="10" stroke-linecap="round" stroke-linejoin="round"/>
<path d="M114.684 122.57L119.335 130.261L111.191 188.308L123.473 200.484L131.491 185.231L122.309 130.645L126.966 124.362L121.795 116.162L114.684 122.57Z" fill="#263238" stroke="#263238" stroke-miterlimit="10" stroke-linecap="round" stroke-linejoin="round"/>
<path d="M119.335 130.261L119.158 131.528L124.352 127.891L126.966 124.362L124.472 120.409L116.681 125.872L119.335 130.261Z" fill="#2C9BD8" stroke="#263238" stroke-miterlimit="10" stroke-linecap="round" stroke-linejoin="round"/>
<path d="M116.641 149.467L124.546 143.93L123.433 137.313L117.794 141.266L116.641 149.467Z" fill="#2C9BD8" stroke="#263238" stroke-miterlimit="10" stroke-linecap="round" stroke-linejoin="round"/>
<path d="M123.701 200.049L129.859 188.336L118.941 195.994L123.313 200.32L123.701 200.049Z" fill="#2C9BD8" stroke="#263238" stroke-miterlimit="10" stroke-linecap="round" stroke-linejoin="round"/>
<path d="M125.864 151.78L115.272 159.205L114.125 167.406L126.977 158.397L125.864 151.78Z" fill="#2C9BD8" stroke="#263238" stroke-miterlimit="10" stroke-linecap="round" stroke-linejoin="round"/>
<path d="M128.826 169.385L112.213 181.029L111.191 188.308L111.682 188.794L129.939 176.002L128.826 169.385Z" fill="#2C9BD8" stroke="#263238" stroke-miterlimit="10" stroke-linecap="round" stroke-linejoin="round"/>
<path d="M121.276 118.854L109.896 131.03L106.015 115.268L107.236 110.439L121.276 118.854Z" fill="white" stroke="#263238" stroke-miterlimit="10" stroke-linecap="round" stroke-linejoin="round"/>
<path d="M121.276 118.854L129.939 130.131L134.077 114.624L132.656 111.038L121.276 118.854Z" fill="white" stroke="#263238" stroke-miterlimit="10" stroke-linecap="round" stroke-linejoin="round"/>
<path d="M40.0638 110.292C40.0638 110.292 36.183 102.465 34.2368 99.9027C32.2964 97.3351 30.356 95.7969 28.1531 95.4123C25.9502 95.0277 24.3978 95.1578 22.7142 94.5131C21.0306 93.874 17.6635 92.9748 16.7617 91.8211C15.8543 90.6674 14.1707 91.4366 14.9469 93.3594C15.7231 95.2822 18.4396 96.566 18.4396 96.566L20.6426 97.5896C20.6426 97.5896 13.5258 98.6133 13.0065 98.9978C12.4871 99.3824 6.27783 99.897 6.27783 99.897C6.27783 99.897 8.9944 104.642 12.8809 106.825C16.7617 109.008 28.9293 107.209 28.9293 107.209L32.5532 114.776L40.0638 110.292Z" fill="white" stroke="#263238" stroke-miterlimit="10" stroke-linecap="round" stroke-linejoin="round"/>
<path d="M3.83528 98.6302C3.83528 98.6302 1.83209 94.417 2.0033 93.5064C2.16881 92.5959 3.92088 93.1784 4.503 94.417C5.08513 95.6555 7.08831 98.6302 7.08831 98.6302H3.83528Z" fill="white" stroke="#263238" stroke-miterlimit="10" stroke-linecap="round" stroke-linejoin="round"/>
<path d="M0.2854 96.6282C0.2854 96.6282 3.39005 103.172 5.46173 104.964C7.5334 106.763 11.6767 106.887 11.6767 106.887C11.6767 106.887 6.75723 101.758 5.72425 99.8348C4.68556 97.912 0.930301 93.2915 0.2854 96.6282Z" fill="white" stroke="#263238" stroke-miterlimit="10" stroke-linecap="round" stroke-linejoin="round"/>
<path d="M2.78516 97.2051C2.78516 97.2051 5.88981 103.748 7.96148 105.541C10.0332 107.334 14.1765 107.464 14.1765 107.464C14.1765 107.464 9.25699 102.335 8.22401 100.412C7.18532 98.4888 3.43576 93.874 2.78516 97.2051Z" fill="white" stroke="#263238" stroke-miterlimit="10" stroke-linecap="round" stroke-linejoin="round"/>
<path d="M30.8753 103.878C30.8753 103.878 30.2304 102.855 28.0274 101.441C25.8245 100.033 14.1763 103.624 14.1763 103.624C14.1763 103.624 8.86876 97.0807 8.0926 96.4416C7.31643 95.8025 5.88966 95.418 5.63284 96.6961C5.37602 97.9742 8.86876 103.494 9.77619 104.393C10.6836 105.292 14.1763 107.47 14.1763 107.47C14.1763 107.47 17.281 108.623 20.7794 108.493C24.2722 108.363 28.9349 107.209 28.9349 107.209" fill="white"/>
<path d="M30.8753 103.878C30.8753 103.878 30.2304 102.855 28.0274 101.441C25.8245 100.033 14.1763 103.624 14.1763 103.624C14.1763 103.624 8.86876 97.0807 8.0926 96.4416C7.31643 95.8025 5.88966 95.418 5.63284 96.6961C5.37602 97.9742 8.86876 103.494 9.77619 104.393C10.6836 105.292 14.1763 107.47 14.1763 107.47C14.1763 107.47 17.281 108.623 20.7794 108.493C24.2722 108.363 28.9349 107.209 28.9349 107.209" stroke="#263238" stroke-miterlimit="10" stroke-linecap="round" stroke-linejoin="round"/>
<path d="M44.5837 117.005L39.921 108.833L28.6267 115.585L31.4917 122.513L44.5837 117.005Z" fill="white" stroke="#263238" stroke-miterlimit="10" stroke-linecap="round" stroke-linejoin="round"/>
<path d="M106.015 115.268L101.615 235.723H69.6951L76.1498 149.885C76.1498 149.885 58.7546 168.723 56.7799 169.787C54.8053 170.855 52.2942 167.473 52.2942 167.473L28.7981 121.8L42.7862 114.16L58.2067 139.038L60.5409 137.438L62.3329 138.326C62.3329 138.326 78.2956 110.422 79.5512 109.715C80.8068 109.002 86.725 109.359 86.725 109.359L102.146 110.603L107.362 109.477L106.015 115.268Z" fill="#2C9BD8" stroke="#263238" stroke-miterlimit="10" stroke-linecap="round" stroke-linejoin="round"/>
<path d="M76.3267 147.216L77.4396 136.244L69.1357 157.169L76.1497 149.885L76.3267 147.216Z" fill="#263238" stroke="#263238" stroke-miterlimit="10" stroke-linecap="round" stroke-linejoin="round"/>
<path d="M73.9983 120.737C73.9983 120.737 75.2538 138.156 75.4308 139.394" stroke="#263238" stroke-miterlimit="10" stroke-linecap="round" stroke-linejoin="round"/>
<path d="M72.0234 133.354L73.9981 145.796" stroke="#263238" stroke-miterlimit="10" stroke-linecap="round" stroke-linejoin="round"/>
<path d="M58.0355 140.463L53.3728 150.06" stroke="#263238" stroke-miterlimit="10" stroke-linecap="round" stroke-linejoin="round"/>
<path d="M62.1617 139.575L58.395 147.04" stroke="#263238" stroke-miterlimit="10" stroke-linecap="round" stroke-linejoin="round"/>
<path d="M94.1042 142.663C95.2856 150.733 97.3858 162.915 100.182 170.674" stroke="#263238" stroke-miterlimit="10" stroke-linecap="round" stroke-linejoin="round"/>
<path d="M102.511 112.209C102.511 112.209 96.7694 120.918 94.9774 123.582C93.1853 126.246 91.3933 128.378 91.3933 128.378L100.182 129.797L93.0084 134.418C93.0084 134.418 93.191 136.029 93.5392 138.637" stroke="#263238" stroke-miterlimit="10" stroke-linecap="round" stroke-linejoin="round"/>
<path d="M199.936 110.292C199.936 110.292 203.817 102.465 205.763 99.9027C207.704 97.3351 209.644 95.7969 211.847 95.4123C214.05 95.0277 215.602 95.1578 217.286 94.5131C218.969 93.874 222.337 92.9748 223.238 91.8211C224.146 90.6674 225.829 91.4366 225.053 93.3594C224.277 95.2822 221.56 96.566 221.56 96.566L219.357 97.5896C219.357 97.5896 226.474 98.6133 226.994 98.9978C227.513 99.3824 233.722 99.897 233.722 99.897C233.722 99.897 231.006 104.642 227.119 106.825C223.238 109.008 211.071 107.209 211.071 107.209L207.447 114.776L199.936 110.292Z" fill="white" stroke="#063455" stroke-miterlimit="10" stroke-linecap="round" stroke-linejoin="round"/>
<path d="M236.171 98.6302C236.171 98.6302 238.174 94.417 238.002 93.5064C237.837 92.5959 236.085 93.1784 235.503 94.417C234.921 95.6555 232.917 98.6302 232.917 98.6302H236.171Z" fill="white" stroke="#063455" stroke-miterlimit="10" stroke-linecap="round" stroke-linejoin="round"/>
<path d="M239.715 96.6282C239.715 96.6282 236.61 103.172 234.538 104.964C232.467 106.763 228.323 106.887 228.323 106.887C228.323 106.887 233.243 101.758 234.276 99.8348C235.314 97.912 239.07 93.2915 239.715 96.6282Z" fill="white" stroke="#063455" stroke-miterlimit="10" stroke-linecap="round" stroke-linejoin="round"/>
<path d="M237.215 97.2051C237.215 97.2051 234.11 103.748 232.039 105.541C229.967 107.34 225.824 107.464 225.824 107.464C225.824 107.464 230.743 102.335 231.776 100.412C232.815 98.4888 236.57 93.874 237.215 97.2051Z" fill="white" stroke="#063455" stroke-miterlimit="10" stroke-linecap="round" stroke-linejoin="round"/>
<path d="M209.125 103.878C209.125 103.878 209.77 102.855 211.973 101.441C214.176 100.033 225.824 103.624 225.824 103.624C225.824 103.624 231.131 97.0807 231.907 96.4416C232.684 95.8025 234.11 95.418 234.367 96.6961C234.624 97.9799 231.131 103.494 230.224 104.393C229.316 105.292 225.824 107.47 225.824 107.47C225.824 107.47 222.719 108.623 219.221 108.493C215.728 108.363 211.065 107.209 211.065 107.209" fill="white"/>
<path d="M209.125 103.878C209.125 103.878 209.77 102.855 211.973 101.441C214.176 100.033 225.824 103.624 225.824 103.624C225.824 103.624 231.131 97.0807 231.907 96.4416C232.684 95.8025 234.11 95.418 234.367 96.6961C234.624 97.9799 231.131 103.494 230.224 104.393C229.316 105.292 225.824 107.47 225.824 107.47C225.824 107.47 222.719 108.623 219.221 108.493C215.728 108.363 211.065 107.209 211.065 107.209" stroke="#063455" stroke-miterlimit="10" stroke-linecap="round" stroke-linejoin="round"/>
<path d="M195.416 117.005L200.079 108.833L211.379 115.585L208.508 122.513L195.416 117.005Z" fill="white" stroke="#063455" stroke-miterlimit="10" stroke-linecap="round" stroke-linejoin="round"/>
<path d="M133.985 115.268L138.385 235.723H170.305L163.85 149.885C163.85 149.885 181.246 168.723 183.22 169.787C185.195 170.855 187.706 167.473 187.706 167.473L211.202 121.8L197.214 114.16L181.793 139.038L179.459 137.438L177.667 138.326C177.667 138.326 161.704 110.422 160.449 109.715C159.193 109.002 153.275 109.359 153.275 109.359L137.855 110.603L132.13 109.477L133.985 115.268Z" fill="#2C9BD8" stroke="#063455" stroke-miterlimit="10" stroke-linecap="round" stroke-linejoin="round"/>
<path d="M163.85 149.885L163.634 141.215L170.556 156.655L163.85 149.885Z" fill="#063455" stroke="#063455" stroke-miterlimit="10" stroke-linecap="round" stroke-linejoin="round"/>
<path d="M163.673 147.216L162.058 123.757" stroke="#063455" stroke-miterlimit="10" stroke-linecap="round" stroke-linejoin="round"/>
<path d="M165.614 128.225C165.614 128.225 164.746 138.156 164.569 139.4" stroke="#063455" stroke-miterlimit="10" stroke-linecap="round" stroke-linejoin="round"/>
<path d="M167.977 133.354L166.008 145.796" stroke="#063455" stroke-miterlimit="10" stroke-linecap="round" stroke-linejoin="round"/>
<path d="M181.965 140.463L182.878 145.61" stroke="#063455" stroke-miterlimit="10" stroke-linecap="round" stroke-linejoin="round"/>
<path d="M177.843 139.575L177.781 143.082" stroke="#063455" stroke-miterlimit="10" stroke-linecap="round" stroke-linejoin="round"/>
<path d="M141.119 166.625C140.708 168.067 140.274 169.43 139.823 170.68" stroke="#063455" stroke-miterlimit="10" stroke-linecap="round" stroke-linejoin="round"/>
<path d="M137.489 112.209C137.489 112.209 143.231 120.918 145.023 123.582C146.815 126.246 148.607 128.378 148.607 128.378L139.818 129.797L146.992 134.418C146.992 134.418 145.097 151.169 141.844 163.911" stroke="#063455" stroke-miterlimit="10" stroke-linecap="round" stroke-linejoin="round"/>
<path d="M107.179 98.3531L107.231 110.439L121.276 118.854L132.656 111.038L131.623 97.3238C131.623 97.3238 122.828 102.962 121.664 103.217C120.5 103.477 107.179 98.3531 107.179 98.3531Z" fill="white" stroke="#263238" stroke-miterlimit="10" stroke-linecap="round" stroke-linejoin="round"/>
<path d="M107.373 108.12L120.711 104.851L107.236 99.3994L107.373 108.12Z" fill="#263238" stroke="#263238" stroke-miterlimit="10" stroke-linecap="round" stroke-linejoin="round"/>
<path d="M131.623 83.2306C131.623 83.2306 131.491 77.7222 133.044 74.6457C134.756 71.2524 133.044 68.2381 133.044 68.2381L134.465 67.7235C134.465 67.7235 132.393 66.0551 132.005 65.9307C131.617 65.8006 132.262 62.3452 131.098 60.5467C129.933 58.754 128.769 58.3694 128.769 58.3694L128.124 60.6768C128.124 60.6768 124.631 56.5767 122.691 55.8075C120.751 55.0384 115.192 51.3228 115.061 53.2456C114.929 55.1685 115.706 55.9376 115.706 55.9376C115.706 55.9376 111.825 53.7603 108.851 54.5294C105.878 55.2985 103.03 57.0913 103.681 57.7304C104.326 58.3694 107.173 61.0614 107.173 61.0614C107.173 61.0614 100.576 61.3159 99.7999 62.085C99.0237 62.8542 98.6356 64.1379 98.6356 64.1379L102.385 66.0608C102.385 66.0608 99.0237 65.8063 97.7282 67.8535C96.4327 69.9064 96.1759 70.6756 97.0833 71.0545C97.9907 71.4391 99.6686 72.5928 99.6686 72.5928C99.6686 72.5928 98.7612 74.131 99.7999 76.6929C100.833 79.2548 103.293 84.8933 103.293 84.8933C103.293 84.8933 104.2 75.6693 104.845 73.8709C105.49 72.0781 113.508 67.8479 114.673 67.4633C115.837 67.0787 123.981 69.2561 124.5 69.2561C125.019 69.2561 128.381 82.2013 129.157 82.7103C129.939 83.2306 131.623 83.2306 131.623 83.2306Z" fill="#263238" stroke="#263238" stroke-miterlimit="10" stroke-linecap="round" stroke-linejoin="round"/>
<path d="M110.284 64.2623C110.284 64.2623 101.62 72.7172 101.489 74.131C101.358 75.5392 105.239 97.4539 105.495 98.223C105.752 98.9922 114.935 104.761 117.783 105.4C120.631 106.039 123.604 105.27 124.38 104.631C125.156 103.992 132.655 99.7613 133.432 96.3002C134.208 92.8391 129.294 69.2617 128.775 68.3625C128.261 67.469 116.105 61.7004 110.284 64.2623Z" fill="white" stroke="#263238" stroke-miterlimit="10" stroke-linecap="round" stroke-linejoin="round"/>
<path d="M110.284 64.2623C110.284 64.2623 113.286 65.7384 114.524 66.2813C115.762 66.8242 117.138 64.9184 117.138 64.9184C117.138 64.9184 127.77 68.5322 128.78 68.3625C129.79 68.1929 125.938 64.2397 121.955 62.741C117.96 61.2424 110.312 61.4233 110.284 64.2623Z" fill="#263238" stroke="#263238" stroke-miterlimit="10" stroke-linecap="round" stroke-linejoin="round"/>
<path d="M120.374 73.492C120.374 73.492 118.565 75.4148 118.565 76.1839C118.565 76.9531 120.762 86.5616 120.636 87.0762C120.505 87.5909 118.827 88.36 118.051 88.2299C117.275 88.0999 117.275 88.0999 117.275 88.0999C117.275 88.0999 116.63 88.2299 115.723 88.2299C114.815 88.2299 114.558 87.2063 114.558 87.2063" stroke="#263238" stroke-miterlimit="10" stroke-linecap="round" stroke-linejoin="round"/>
<path d="M120.631 87.0762C120.631 87.0762 121.926 87.3307 122.052 86.5616C122.183 85.7925 122.183 85.7925 122.183 85.7925" stroke="#263238" stroke-miterlimit="10" stroke-linecap="round" stroke-linejoin="round"/>
<path d="M117.269 88.0999C117.269 88.0999 116.362 87.4608 116.75 86.3071" stroke="#263238" stroke-miterlimit="10" stroke-linecap="round" stroke-linejoin="round"/>
<path d="M114.941 95.9156C114.941 95.9156 119.21 91.1764 124.123 93.0936" stroke="#263238" stroke-miterlimit="10" stroke-linecap="round" stroke-linejoin="round"/>
<path d="M114.296 75.0302C114.296 75.0302 110.677 73.3619 108.737 74.6457C106.797 75.9294 106.021 77.9767 106.021 77.9767" stroke="#263238" stroke-width="2" stroke-miterlimit="10" stroke-linecap="round" stroke-linejoin="round"/>
<path d="M121.92 73.492C121.92 73.492 123.473 72.0838 125.539 72.8529C127.61 73.622 128.643 75.5449 128.643 75.5449" stroke="#263238" stroke-width="2" stroke-miterlimit="10" stroke-linecap="round" stroke-linejoin="round"/>
<path d="M111.773 81.8224C112.309 81.8224 112.744 81.2198 112.744 80.4764C112.744 79.733 112.309 79.1304 111.773 79.1304C111.238 79.1304 110.803 79.733 110.803 80.4764C110.803 81.2198 111.238 81.8224 111.773 81.8224Z" fill="#263238"/>
<path d="M124.317 78.5535C124.317 79.2944 123.884 79.8995 123.347 79.8995C122.811 79.8995 122.377 79.2944 122.377 78.5535C122.377 77.8127 122.811 77.2076 123.347 77.2076C123.884 77.2076 124.317 77.807 124.317 78.5535Z" fill="#263238"/>
<path d="M103.041 83.4851C103.041 83.4851 100.582 80.024 99.4232 82.7159C98.2589 85.4079 99.4232 87.5852 100.587 89.378C101.752 91.1708 104.206 92.07 104.206 92.07L103.041 83.4851Z" fill="white" stroke="#263238" stroke-miterlimit="10" stroke-linecap="round" stroke-linejoin="round"/>
<path d="M131.879 79.2548C131.879 79.2548 132.136 76.8173 133.175 77.0775C134.208 77.332 136.148 79.2548 134.984 81.9468C133.82 84.6388 132.656 87.4552 132.656 87.4552L131.623 82.2013L131.879 79.2548Z" fill="white" stroke="#263238" stroke-miterlimit="10" stroke-linecap="round" stroke-linejoin="round"/>
</g>
<defs>
<clipPath id="clip0_1_2844">
<rect width="240" height="236" fill="white"/>
</clipPath>
</defs>
</svg>
